<svg xmlns="http://www.w3.org/2000/svg" preserveAspectRatio="xMidYMid slice" viewBox="0 0 3200 2266.7"><g fill="#fff"><path d="M2158.6 0h-3.2c-21.8 19.5-38.1 43-35.2 75.4 1.5 17.2 5.3 34.2 9 50.6 10.3 45.9 20 89.2-22.6 129a357 357 0 0 1-55.9 39.8c-32 20-65.3 40.7-83.6 74.5-20.7 38.1-9.6 84.5 3.3 116.6q3.8 9 7.8 17.8c14.6 32 29.7 65.2-6.8 89.8-24 16.3-55.7 24.5-86.4 32.4q-21.3 5.2-40.1 11.3c-45.6 15.2-86.1 30-120.3 55.7-64 48.2-51.7 107.5-38.7 170.2a573 573 0 0 1 10.3 60.2c8 86-54.6 131.5-115.2 175.5q-15 10.8-29.7 22c-66.4 51-93 123.2-121.1 199.6q-8 21.6-16.3 43.4c-15 38.5-30.4 84.9-29.2 137a184 184 0 0 0 4.6 29.7c5.3 26.1 11.3 55.6-3.7 71.4-17 17.7-51.7 20.6-106 8.7-30.8-6.7-74.3-21.4-107.5-53.3-52.2-50.3-37.9-126.5-25.2-193.8 3.9-20.8 7.6-40.6 9.5-59.2l.7-7.2c3.2-31.2 8.7-83.3-9-108-7.4-31-27.8-56-47.6-80.3-7-8.6-14.2-17.4-20.6-26.3-25.8-35.7-16.7-62.7.3-100a842 842 0 0 1 27.5-53.5 603 603 0 0 0 36.7-75.4c29.5-78.7 8.8-154.5-52.7-193.3-42.5-26.7-91.2-22.5-129-15.8l-16.6 3.2c-36.6 7.3-78 15.6-107.9-11.7q-20.4-18.6-29.6-53.5a351 351 0 0 1-7.3-39.2c-.3-2.1-.5-5.8-.7-10.2-.8-16.8-2-32.2-6.9-36.3a98 98 0 0 1-8-27 100 100 0 0 0-9.8-31.2c-2.8-20-22.7-46-38.7-66.8-4.8-6.3-9.4-12.3-12.8-17.3-58.2-84-141.4-181-269.9-186.4a739 739 0 0 0-33.6-.4c-36.6.1-74.4.2-106.6-16-48.9-24.7-59.7-92.8-49-151.7h-2.1c-10.8 59.6.4 128.5 50.1 153.6C346 170 384.1 170 421 169.8q17.3-.1 33.5.4c127.5 5.4 210.2 102 268.1 185.6q5.4 7.7 13 17.3c15.8 20.7 35.6 46.5 38.2 66l.1.4a99 99 0 0 1 9.7 30.7c2 10 4 19.5 8.4 27.8l.2.3c4.7 3.6 5.7 23.2 6.3 35 .2 4.3.4 8.1.7 10.3 1.9 13 3.8 26.5 7.3 39.5q9.5 35.4 30.3 54.5c30.6 28 72.7 19.6 109.7 12.2l16.6-3.2c37.4-6.6 85.6-10.8 127.4 15.5 60.7 38.2 81 113.1 51.9 190.7a600 600 0 0 1-36.6 75.2c-9.5 17.4-19.3 35.3-27.6 53.7-16.7 36.7-26.5 65.6 0 102.1 6.4 9 13.7 17.8 20.7 26.3 19.6 24.1 40 49 47.2 79.7l.2.4c17.3 24 11.9 75.8 8.6 106.7l-.7 7.1a702 702 0 0 1-9.4 59c-12.8 68-27.3 144.8 25.9 195.9 33.5 32.2 77.4 47 108.4 53.8q33 7.2 56.6 7.2 35.8 0 51.4-16.6c15.8-16.5 9.7-46.6 4.3-73.2-2.3-11-4.4-21.3-4.5-29.3-1.2-51.8 14-98 29-136.2 5.6-14.4 11-29.2 16.3-43.4 28-76.1 54.5-148 120.4-198.7q14.7-11.2 29.7-22c61-44.3 124.2-90.2 116-177.4-2-20.4-6.2-40.7-10.2-60.4-13-62-25.1-120.7 37.8-168.1 34-25.6 74.3-40.2 119.7-55.4q18.7-6 40-11.2c30.8-8 62.6-16.2 87-32.7 38-25.6 22.5-59.6 7.6-92.5q-4.1-8.9-7.8-17.7c-12.7-31.7-23.7-77.4-3.5-114.8 18.1-33.3 51-53.8 83-73.6 19.5-12.2 39.7-24.8 56.2-40.2 43.5-40.5 33.6-84.5 23.2-131a383 383 0 0 1-9-50.3c-2.8-32.3 14-55.7 36.3-75.2"/><path d="M2015.7 0c-1.9 67.7-97.4 114.2-155.6 142.6l-10.1 5a1167 1167 0 0 1-66.8 29.4c-58 24.2-112.7 47-159.3 93.8a546 546 0 0 0-39.8 46.5 546 546 0 0 1-38.8 45.3c-31.2 31.6-65.5 51.7-118.4 69.7l-.4.2c-26.6 11.4-71.6 3.9-104.7-7-27.8-9-54.3-24-80-38.5a893 893 0 0 0-40.4-21.9l-.6-.3-.7-.1c-17.4-3.6-29.5 8.3-40 18.7q-5.8 5.7-11.1 9.9l-.7.6a252 252 0 0 1-49.9 40.4c-42.9 26.3-80.2 29.7-111 10a52 52 0 0 1-23.8-33.3 68 68 0 0 1 10.8-50.4 113 113 0 0 1 104.5-50.9c8.9.9 22.4 6.2 36.7 11.9 29.5 11.6 63 24.9 80 8.7 20.7-19.6 29.1-60.2 26.5-88.5-8.6-92.9-94.1-97.8-162.8-101.7l-20-1.3c-90.4-6.3-167.5-45-211.8-106.4l-2.4-3.3c-5.4-7.3-14-19.2-16.6-29.1h-10.9c2.3 12.9 12.2 26.4 18.9 35.5l2.3 3.2C865 102.7 945 143 1038.5 149.6l20.2 1.2c71.3 4 145 8.3 152.7 92 2.4 26.1-5.6 63-23 79.7-12.2 11.5-43.6-1-68.8-11-15.1-5.9-29.3-11.5-39.7-12.5a124 124 0 0 0-114.5 55.7 79 79 0 0 0-12.2 58.6 63 63 0 0 0 28.5 40.1q22.2 14.2 48.4 14.1 34.5 0 74-24a263 263 0 0 0 51.6-41.8c4.1-3 8-7 11.8-10.7 9.4-9.2 18.3-17.9 29.8-16 13.1 6.6 26.4 14.2 39.3 21.4 26 14.7 53 30 81.9 39.4 34.9 11.4 82.6 19.1 112 6.7 54.5-18.6 90-39.5 122.4-72.3a555 555 0 0 0 39.6-46.2c12.2-15.4 25-31.4 39-45.6 45-45.3 98.8-67.7 155.8-91.4 22.1-9.3 45-18.8 67.4-29.8l10-5c60.7-29.5 160-77.9 161.8-152.2zm300.1 1499.6c72 45 169.7 48.5 241.1 51l11 .3c39 1 87.5 2.4 113.4 31.6 21.8 24.7 21.3 59.3 13.4 83.7-5 7.6-8.6 15.3-12 22.8-5.2 11.2-10 21.8-19.4 31.3a170 170 0 0 1-47.8 33c-15.1 7.2-31.3 12.7-46.9 18-20.5 6.8-41.7 14-61.4 25.2-62.7 35.8-77.6 105-44.3 205.6 5.8 17.7 12.9 36.2 19.6 54 26.3 68.9 53.3 140 32.5 210.6h11.2c20.3-72.9-7.1-144.8-33.7-214.5-7-18.5-13.6-36-19.4-53.5-31.5-95-18.2-160 39.4-192.9 18.8-10.7 39.4-17.6 59.5-24.4 16-5.3 32.4-10.9 48-18.3a180 180 0 0 0 50.8-35.2c10.9-10.8 16.3-22.8 21.6-34.4 3.5-7.6 6.8-14.9 11.6-22l.5-.5.2-.7c11.5-34.9 5.6-71.2-15.4-94.9-29-32.7-80-34.1-121.1-35.3q-5.6 0-11-.3c-70-2.4-166.2-5.8-235.7-49.3-16.7-10.5-26.2-23.5-28.9-39.8-7.8-46.8 43.6-110.3 74.3-148.3l10.3-12.9 9.7-12.3c47.5-60.7 106.6-136.3 187.8-118 87.9 19.6 158.3 76 234.8 142.2 75.5 65.4 167.5 57.6 239.1 43.5 53-10.3 90.6-33.8 100.8-62.6q11.4-32.6-20.3-70.7c-14.2-17-30.4-32-46.2-46.6a475 475 0 0 1-48.5-49.7c-23.8-29.7-38.4-63-53.7-98.4l-7-15.8c-18.5-41.8-41.6-71.6-72.6-93.8-23.1-16.6-48.7-26.3-73.5-35.6-13.2-5-26.8-10.1-40-16.3-41-19.1-36.5-49.1-30.3-90.6l1-7.5c7.7-53-8.7-94.6-35.7-140.5-45.8-77.8-45.6-146.2.6-215.4 21.4-32 46.1-62.9 70.1-92.7 38.9-48.3 79-98.3 106.7-155.7l1.7-3.5c6.3-12.7 14.9-30.1 1.4-45.4-11.5-13-28.4-20.4-44.7-27.5q-9.7-4.2-18-8.3Q2786.8 40 2766 0h-12q21.5 46.2 81.4 77.8 8.8 4.5 18.7 8.6c15.3 6.7 31 13.6 41 24.8 8 9.2 4 19.2-3 33.5l-1.8 3.6c-27 56.3-66.9 105.8-105.4 153.7-24 30-49 61-70.6 93.4-48.8 73-49 145.1-1 226.9 26.6 45.2 41.7 83.3 34.5 133.5l-1.1 7.4c-6 40.8-11.8 79.4 36.4 102a573 573 0 0 0 40.8 16.6c25.2 9.5 49 18.4 71 34.2 29.4 21.1 51.3 49.5 69 89.4l7 15.8c15 34.4 30.5 70 55.1 100.8 15 18.8 32.6 35 49.7 50.9a501 501 0 0 1 45.2 45.6q27.8 33.4 18.4 60.2c-9 25.2-43.6 46-92.7 55.7-103 20.2-173.9 7.5-230.1-41.1-77.6-67.2-149.1-124.4-239.4-144.6-87.9-19.7-149.3 58.8-198.6 121.9l-9.7 12.3q-4.6 5.9-10.3 12.8c-33.8 41.8-85 105.2-76.5 156.8q4.9 28.9 33.8 47M2976 0c-32.8 18.2-67.8 30.3-103.8 19.8A106 106 0 0 1 2834.6 0h-3.3a108 108 0 0 0 40.3 21.9q14.3 4 28.2 4c28 0 55-11.3 80.6-25.9zM242.8 192l-2.9-14.4c-8.4-48.8-17.1-99.3-9.7-155.6q1.4-10.5 3.8-22h-2.2a296 296 0 0 0-3.8 21.7c-7.4 56.6 1.4 107.3 9.8 156.2q1.4 7.5 3 14.6c2.5 12.1 5.2 24.7 4.6 37.3-1 18.4-18.8 32-33.2 43l-3.9 3c-28.6 22-55.3 48.8-81.2 74.6l-29.3 29c-31.7 16.7-64 18.1-97.8 18.2v2.1c34.2 0 66.8-1.4 99-18.4l.2-.2c9.8-9.5 19.8-19.5 29.4-29.1a879 879 0 0 1 81-74.6l3.9-3c14.7-11.1 33-25 34-44.5.7-13-2-25.6-4.7-37.8"/><path d="M203.9 0a858 858 0 0 0-8.8 78c-5 59.9-10 122-45.2 174A280 280 0 0 1 64 336a196 196 0 0 1-64 23.8v2.1c22.2-4.7 43.7-11 65.2-24a282 282 0 0 0 86.4-84.8c35.6-52.4 40.7-114.8 45.6-175 2.1-25.8 4.3-52.3 8.8-78.1zm716.8 160.7q-12.6-6.1-22.6-11.6a1009 1009 0 0 1-59.4-35.2c-5.6-3.7-11.6-9-18-14.5-10.3-9-21-18.3-31.2-21.9-9.3-3.2-19.2-12-28.8-20.5-6.3-5.5-12.3-10.8-18-14.5a765 765 0 0 0-57.8-33L669 1l-2-1.1h-4.7l5.7 3 16 8.4a757 757 0 0 1 57.7 33c5.5 3.5 11.4 8.7 17.6 14.2 9.8 8.7 20 17.6 29.6 21 9.8 3.4 20.4 12.6 30.5 21.5 6.4 5.6 12.5 10.8 18.2 14.6a956 956 0 0 0 59.5 35.3c6.6 3.7 14.5 7.6 22.8 11.6 28.8 14 64.5 31.6 75.6 56.3 9.7 21.5-28 61.4-53 87.8a322 322 0 0 0-19.9 22 394 394 0 0 0-37.6 59q-2 4-4.5 10.4c-6.2 15.3-15.6 38.6-28.8 36.4-26-4.2-55.5-40.4-75-64.3l-10.4-12.5c-13.2-15.3-26-31.3-38.4-46.8q-15.3-19.2-31.4-38.5c-48-57-110.2-117-207.9-128.8-10.7-1.3-22-2.3-32.9-3.3-73.7-6.9-150-14-162-103.9q-1.3-18.1 1.2-36.4h-2.1a175 175 0 0 0-1.3 36.7c12.3 91.7 89.4 98.8 164 105.7q16.5 1.4 32.9 3.4c97 11.7 158.8 71.2 206.5 128a2100 2100 0 0 1 31.3 38.5c12.4 15.5 25.3 31.5 38.5 46.8l10.3 12.5c19.7 24.1 49.6 60.7 76.4 65l2 .2c13.7 0 22.6-21.9 29-37.8q2.6-6.4 4.5-10.3a393 393 0 0 1 37.5-58.7c4-5.4 11.2-13 19.6-21.9 27-28.4 63.7-67.2 53.5-90.1-11.4-25.4-47.6-43-76.7-57.3"/><path d="M170 0c-4.5 20.8-7.9 42.4-11.1 63.4-8.1 51.8-16.5 105.3-41.3 150.5A231 231 0 0 1 0 318.6v2.3c49-18.5 92.3-56.4 119.5-106 25-45.4 33.4-99.2 41.5-151.1 3.3-21.2 6.7-42.9 11.2-63.8z"/><path d="m137 0-6 18c-6.2 20.2-11.3 42-16.6 64.9C96.3 160.6 76 247.4 0 281.6v2.4c77.7-34.3 98.2-122 116.5-200.6 5.3-23 10.3-44.6 16.6-64.8L139 0zM82.1 0C67.3 34.8 60.6 67 53.5 101q-2.8 13.8-6 28.4c-8.4 37.7-24.6 68-47.5 89.4v3c24-22 41-53 49.6-92q3.2-14.5 6-28.3C62.8 67.3 69.5 35 84.5 0zM1221 14c21.8 9.8 44.4 19.9 69.2 21q11.5.8 24 .8c23 0 48-2 78.6-6.3A458 458 0 0 0 1503 0h-5.7a455 455 0 0 1-104.8 27.4 561 561 0 0 1-78.4 6.3q-12.2 0-23.8-.8c-24.4-1.2-46.8-11.2-68.4-20.8-9-4-18.3-8.2-27.6-11.7L1193 0h-7.3q4 1 7.8 2.5 14 5.3 27.5 11.6"/><path d="M1969.7 0q-3.7 37-44.6 73.2c-45.7 40.5-98.5 61.6-154.5 84-23.8 9.5-48.4 19.3-72.2 30.8a302 302 0 0 0-107.6 85.8q-9.3 11.5-18.3 23.2c-21.7 28.1-44.2 57.2-73.3 78.7a173 173 0 0 1-100.7 33.4c-55.4 0-95.3-28.7-109.5-78.6-6.9-24-9.3-49.6-11.6-74.2-2-21.8-4.1-44.4-9.3-66-9-37.8-25.5-90.1-63.1-107.2-20-9-42.7-13.1-73.6-13.1q-18.5.1-36.6 1.2-12.9.7-25.8 1h-.3c-9.7 0-86.8-7.5-92.7-23.5q-1.5-3.9 4-8.7c17.4-19.1 60-25.3 91.2-29.8q10.5-1.5 18.9-3l16.2-3q11-2.3 22.3-4.2h-12.3L1106 2l-16.2 3.1c-5.4 1-12 2-18.8 3-31.4 4.5-74.5 10.8-92.4 30.4q-6.4 5.6-4.5 11c6.8 18.2 88.1 24.9 94.7 24.9h.4l25.8-1q18.1-1.2 36.5-1.3c30.6 0 53 4 72.7 13 36.8 16.6 53 68.3 62 105.7 5 21.5 7.2 44 9.2 65.7 2.3 24.8 4.7 50.4 11.6 74.6 14.5 51 55.2 80.1 111.6 80.1 35.7 0 72.9-12.3 102-33.8 29.3-21.6 51.9-50.8 73.7-79q9-11.7 18.3-23.3a300 300 0 0 1 106.8-85.2c23.7-11.4 48.3-21.2 72.1-30.7 53.7-21.5 109.2-43.7 155.2-84.4Q1968.3 37.9 1972 0z"/><path d="M1933.7 0q-1.7 26.7-24.8 51.5c-45.5 49-107 71.8-166.7 94l-20.1 7.5a351 351 0 0 0-165.8 123.7c-30 39.3-80.3 105.2-141 105.2a90 90 0 0 1-30-5.3c-59.5-21-66-90.4-71.6-151.7q-2-23-4.9-42.3c-2.5-31.1-5.6-70 23-94.1 20.7-17.7 52.4-26 80.3-33.2l19.7-5.4a631 631 0 0 0 122-49.9h-4.6a627 627 0 0 1-137.7 53.2c-28.1 7.3-60 15.7-81.2 33.6-29.4 25-26.2 64.3-23.6 96.1 2.1 12.7 3.4 27 4.8 42.2 5.5 58.9 12.3 132.1 73.2 153.5a92 92 0 0 0 30.6 5.4c61.7 0 112.4-66.4 142.7-106 45.7-59.9 95-96.6 164.8-123l20.2-7.5c59.8-22.2 121.7-45.2 167.5-94.5q23.7-25.5 25.4-53zm723.9 0h-3.1c19.9 18.1 35.3 39.7 34.8 68.4-1.5 74.7-57 141.7-148.7 179.3a907 907 0 0 1-54.6 19.7c-59.3 20.1-120.6 40.9-157.5 94.6a918 918 0 0 0-32.9 53c-32.2 54.6-65.4 111-128.6 137.1a122 122 0 0 1-46.7 11.1c-20.1 0-38.6-8-58-25.1-35.9-31.7-58.2-65.6-66.2-100.7-6.6-39.2 13-74 59.6-106.3 11.3-8 23.9-15.4 36-22.6 47.6-28.2 96.8-57.3 91.7-122.7-1.2-14.8-4.2-29.6-7-44-4.8-23.4-9.7-47.6-6.7-71.8 3.5-27.8 20-50.5 40.1-70h-3c-19.8 19.4-35.7 42-39.2 69.7-3 24.6 1.9 49 6.6 72.5 3 14.3 6 29.1 7 43.7 5.1 64.1-43.5 93-90.6 120.8a666 666 0 0 0-36.2 22.6c-47.4 33-67.2 68.4-60.4 108.5 8.1 35.6 30.6 70 66.9 102 19.8 17.4 38.7 25.6 59.4 25.6 14 0 29-3.6 47.5-11.3 63.8-26.4 97.3-83.1 129.7-138 10.4-17.6 21.2-35.9 32.8-52.9 36.4-53.1 97.4-73.8 156.3-93.7a939 939 0 0 0 54.8-19.8c92.5-37.9 148.5-105.6 150-181.2.6-28.8-14.3-50.4-33.8-68.5m-1866 141.3-10.7-6a1729 1729 0 0 0-90.3-48.6 610 610 0 0 1-39.7-21.3q-9.3-5.9-18.8-14c-8.4-6.7-17.1-13.7-26.6-18.2-12.5-10.6-25-22-37.3-33.2h-16l6.9 6.3c13 11.9 26.6 24.2 40 35.6l.6.5.7.3a130 130 0 0 1 25 17.2 177 177 0 0 0 20 14.7 623 623 0 0 0 40.4 21.7 1714 1714 0 0 1 100.5 54.4c40.3 22.6 107.8 60.6 92.6 106.8a75 75 0 0 1-49.6 50.6q-4.4 1.2-9.3 1.2-26.5 0-61.7-37c-16.2-17.1-31-36.2-45.3-54.6-22.2-28.6-45.1-58-74.2-81.6-36.6-29.7-89.2-32.2-140-34.7-67.7-3.2-131.6-6.2-155.2-70.4a119 119 0 0 1-.6-31h-10.8q-1.6 16.8 1 33.2l.2 1c25.9 71.3 96.5 74.7 164.9 78 49 2.3 99.9 4.7 133.8 32.3 28 22.7 50.6 51.7 72.4 79.8 14.5 18.6 29.5 37.9 46 55.4Q788.9 320 820 320q6.3 0 12.2-1.7a86 86 0 0 0 56.9-57.5c17.9-54.7-54.4-95.3-97.5-119.6"/><path d="M1888.4 0c-.9 17.6-9.2 35-24.6 50.7-38.6 39.3-91.4 56.3-142.5 72.8l-22.6 7.3c-65.6 22-109.1 50.4-145.7 95.3-4.3 5.3-9.4 12-14.8 19.2-26 34.8-65.1 87.4-106 87.4q-12.7 0-24.5-6.7c-35.8-20.1-41.4-59.6-46.8-97.7l-2.8-19.2c-5-73.6 30.5-102.7 93.4-128.2A1001 1001 0 0 0 1613.2 0h-4c-46.7 29-96.5 53.9-158.5 79-63.8 25.7-99.8 55.4-94.8 130.4q1.5 9.2 2.9 19.2c5.4 38.7 11 78.6 47.8 99.3q12.3 7 25.6 7c42 0 81.5-53.1 107.7-88.3q8.3-11.2 14.8-19.2c36.2-44.5 79.5-72.8 144.7-94.5l22.6-7.4c51.3-16.5 104.4-33.6 143.4-73.3 15.5-15.8 24-34 25-52.2zm699.9 0c31.9 29 44.3 58.4 44 102.3-7.3 40-34.2 69-55.4 86.3-41.8 33.9-93.8 48.6-144.1 62.9-31.3 8.9-63.6 18-93.5 31.7-41.4 19-51.8 49.5-63.7 84.8l-6 17c-10.6 29.7-26.8 67-58.1 93.6-23 19.6-51 30.4-78.4 30.4-44.1 0-80.2-26.5-96.7-71-1-39 10.5-61.9 42.3-84a408 408 0 0 1 62.4-33.5l18.7-8.7 3.6-1.7c31.1-15 63.3-30.3 69.5-69.9l.2-.6-.1-.6a370 370 0 0 0-14-70 497 497 0 0 1-11.4-50c-8-51.2 14.9-90.4 45-119h-15l-1.9 2c-32.5 35.5-45.5 75.4-38.7 118.7 2.7 17.3 7.3 34.5 11.7 51a366 366 0 0 1 13.6 67.4c-5.7 33.6-33.8 47-63.5 61.2l-3.7 1.8q-9.1 4.4-18.5 8.7c-21.6 10-44 20.3-64 34.3-35 24.5-48.2 50.8-46.9 94v.9l.4.8c18 49.5 58 79 107 79a133 133 0 0 0 85.3-33c33.2-28.3 50.2-67.2 61.3-98l6-17.3c12.1-35.7 20.9-61.5 58-78.5a640 640 0 0 1 92-31.1c51.4-14.6 104.5-29.7 148-65 22.7-18.5 51.5-49.7 59.2-93.2l.1-.8c.4-43-11.2-74-39.3-102.9zM3200 55.6c-36.6 21-73.4 39-118.2 46.6-31.2 3.9-63.4 7.9-94.2-1.5q-12.6-3.8-15.2-11.5c-3.6-10.4 6.9-25.4 13.8-35.3A278 278 0 0 1 3037.1 0h-3.4a278 278 0 0 0-49.2 52.7c-9.6 13.6-17.8 26.6-14.2 37.2q3 8.8 16.6 12.9a148 148 0 0 0 43.2 5.8c17.4 0 34.9-2.2 52-4.3 44.7-7.6 81.5-25.4 117.9-46.2z"/><path d="M2547.7 0h-3.3c27.2 21.3 46.5 49.4 48 83.1 3.5 80-85.6 126.1-170.1 142.6a304 304 0 0 1-58.8 6.6c-25 0-46.1-4.7-64.4-14.3a176 176 0 0 1-60.3-106.4 111 111 0 0 1 25.3-86A161 161 0 0 1 2290.3 0h-3.4a161 161 0 0 0-24.5 24.2 113 113 0 0 0-25.7 87.7c7 42.2 27 77.4 61.2 107.8 18.8 10 40.2 14.8 65.6 14.8 17 0 35.3-2.1 59.2-6.7C2508 211.2 2598 164.5 2594.6 83c-1.5-33.6-20.3-61.7-46.9-83.1m-702.5.1q.3 8-2.4 17.1c-33.8 56.4-94.6 70-153.3 83.2-32.4 7.3-65.9 14.9-94.8 29.4-29.5 14.8-50.1 40.4-70.1 65.2a507 507 0 0 1-28.7 33.5c-16.5 17-34.3 26.7-49 26.7-18 0-30.6-14-36.4-40.5-6.6-43 17-79.5 63.1-97.5l12.9-5c42.2-16.3 82.1-31.7 117.3-61.6 20.4-17.4 41.1-35 63.5-50.5h-3.8a857 857 0 0 0-61 48.8c-35 29.7-74.7 45-116.8 61.3l-12.8 5c-47.1 18.4-71.2 55.7-64.5 99.9 7.6 35 25.2 42.3 38.5 42.3 15.5 0 33.4-9.8 50.5-27.4a514 514 0 0 0 28.9-33.7c19.8-24.6 40.3-50 69.3-64.6 28.7-14.4 62-21.9 94.3-29.1 59.2-13.4 120.5-27.2 154.8-84.5q3-9.6 2.7-18z"/><path d="M2496.6 0h-5a111 111 0 0 1 60.5 63.7 75 75 0 0 1-9.4 71c-25.8 36.7-83.2 61.4-142.9 61.3-64.6 0-111.3-29-125-77.6-8.2-31-3.2-59.5 14.4-82.5 11.4-14.8 28-27 47.6-35.9h-5.2a123 123 0 0 0-44 34.6c-18.1 23.5-23.2 52.7-14.8 84.4 14 49.6 61.4 79.2 127 79.2 60.4 0 118.5-25 144.6-62.2a77 77 0 0 0 9.7-73 112 112 0 0 0-57.5-63M459.9 0h-4.3c5.4 2.8 10 6.5 12.6 11q4.8 8.3-.3 17.6c-5.5 9.9-16.6 11.3-22.7 11.3-14 0-31-7.6-35.3-20.6q-5.3-11.2-1-17.8l1-1.5h-2.6l-.3.3q-4.8 7.7 1 19.8c4.4 13.8 22.4 22 37.2 22 11.2 0 20.2-4.6 24.6-12.5A19 19 0 0 0 470 10a30 30 0 0 0-10.1-10"/><path d="M2322.5 104.6c10.2 30.6 41.5 48.8 83.7 48.8 40.3 0 78.8-16.8 93.6-40.9a46 46 0 0 0 .7-46.5c-17.7-35-56.8-47.6-87.5-47.6q-5 0-10 .4a103 103 0 0 0-56.2 21.8c-21.6 17.6-25.3 36.1-24.3 64m83.7 51c-43.3 0-75.3-18.9-85.8-50.5v-.3c-1-28.6 2.7-47.6 25-65.9a105 105 0 0 1 67.6-22.6c31.3 0 71.3 12.8 89.4 48.8 8.5 17 8.3 33.8-.8 48.5-15.2 24.7-54.4 42-95.4 42M3200 448.2c-8.7 4.1-17.4 8.5-24.9 13.5l-15 10.4a467 467 0 0 1-52.2 33c-28.7 14.9-59.3 15-88.8 15-25.5 0-52 .1-76.7 9.6-31.3 4.3-53.7 23-75.4 41.2-15.1 12.7-30.9 25.8-49.3 34a67 67 0 0 1-53.2-13.8 110 110 0 0 1-41.5-72.9c-5.7-52.8 30.8-98 63-137.8l3.2-4.1c23-28.7 40.5-50.9 56.5-71.8q6.8-9.1 14-19.7c12.4-18.1 25.3-36.8 40.6-48.3l.2-.2c31.4-42.5 80.3-71.4 149.6-88.1a806 806 0 0 0 149.9-50V96a801 801 0 0 1-150.4 50.2c-69.8 16.8-119 45.9-150.7 88.8-15.5 11.6-28.5 30.5-41 48.7q-7.2 10.6-13.9 19.5a3140 3140 0 0 1-56.5 71.8l-3.3 4.1c-32.3 40.2-69 85.8-63.4 139.4 3 28.2 19.7 57.4 42.5 74.4q20.3 15.1 43 15.2 6 0 12-1c19-8.4 34.8-21.7 50.1-34.5 22.5-18.8 43.7-36.5 74.5-40.8 24.7-9.4 50.9-9.4 76.2-9.5 29.8 0 60.6 0 89.8-15.1a474 474 0 0 0 52.4-33.2l15-10.4c7.1-4.8 15.4-9 23.7-13zM1203.5 1471q22.6 25.6 48.7 25.7c22.6 0 44.8-15.1 62.6-42.6 24.9-38.5 49-82.4 71.8-130.6 9-19 16.9-39.1 24.4-58.5a672 672 0 0 1 34.5-78.4c24.8-45.3 67-71.6 108-97 35.8-22.3 72.9-45.4 97.9-81.3 23-33 29.1-71.5 19-117.7a584 584 0 0 0-8.2-31.5c-9.7-35-19.9-71.3-7.8-107.2 24.8-74.2 102.6-103.4 171.2-129.2 15.8-6 30.7-11.5 44.9-17.6 38.7-16.5 82.5-35.3 72.2-88.8a730 730 0 0 0-6.8-30.6c-9.3-39-18.8-79.4-2.8-118.4 24.6-39.6 52.7-62.7 90.2-87.2 38.8-25.3 79-51.5 79-102 0-40.6-22.2-73.8-56.5-84.5h-4.6c-41 0-89 30.9-124 53.5l-9 5.7c-31.7 18.7-67 32.6-101 46-49.2 19.5-100.2 39.7-141 74.5a773 773 0 0 0-66.6 66.6c-48.2 52.2-93.6 101.5-168.7 118.7-19.3 4.4-39 6.6-60.2 6.6a426 426 0 0 1-79-8.3c-19.6-3.7-40.5-7-61-7a152 152 0 0 0-72.8 17.8 501 501 0 0 0-51 31.8c-15.3 10.3-31 21-47.5 29.8a87 87 0 0 1-41.9 11.4c-29.7 0-57.4-17.3-84.2-34.1q-5.4-3.5-13.7-10c-15.1-11.5-35.8-27.3-48.8-27.3q-2 0-3.5.5c-11.7 13.5-12.7 31.5-13.6 48.9l-.8 12.2c3.9 30.4 18 66.8 62.6 66.8q8.3 0 17.5-1.6c14.8-2.8 29.3-7.8 43.3-12.6q8.3-3 16.7-5.7 10.2-3.3 20.3-3.3c17.4 0 32.8 7 50.6 17.6 70.6 41.8 138.8 123 118.2 225.4-5.6 27.9-16.9 55.7-27.8 82.6-24.4 60.2-47.5 117-14.7 177.8l10.3 18.7c17.3 31 35.2 63 40.6 98.8 7.1 47.5 3.5 98.2-.6 142-4.3 47.5-6.6 93.4 13.6 133.5m48.7 27.9c-17.7 0-35.1-9.2-50.4-26.7l-.2-.2c-20.4-40.6-18.2-87-13.8-134.8 4-43.7 7.7-94.2.6-141.5-5.3-35.4-23.1-67.3-40.3-98l-10.4-18.8c-33.3-61.7-9-121.6 14.6-179.6 11-26.8 22.2-54.5 27.8-82.3 20.3-101.2-47.3-181.6-117.3-223-17.5-10.4-32.6-17.3-49.5-17.3q-9.7 0-19.7 3.2l-16.6 5.6a297 297 0 0 1-43.7 12.7q-9.3 1.6-17.8 1.7c-36.6 0-59-23.8-64.8-68.9l.8-12.4c1-17.9 2-36.3 14.4-50.4l.1-.2.3-.1q2.1-.7 4.5-.7c13.7 0 34.7 16 50.1 27.7a211 211 0 0 0 13.5 9.9c26.6 16.6 54 33.8 83.1 33.8 13.7 0 27-3.7 40.9-11.2 16.4-8.8 32-19.5 47.3-29.7a527 527 0 0 1 51.2-32c23.7-12.3 47.2-18 73.9-18 20.5 0 41.6 3.4 61.4 7a422 422 0 0 0 78.5 8.3c21 0 40.6-2.1 59.7-6.5 74.5-17 119.7-66.1 167.6-118a767 767 0 0 1 66.8-66.9c41-35 92.2-55.2 141.7-74.7 34-13.5 69-27.4 100.5-45.9l9-5.7c36.6-23.7 87.3-56.4 130.1-53.8 35.5 11 58.3 45 58.3 86.6 0 51.6-42.5 79.4-80 103.8-37.1 24.3-65 47.3-89.4 86.4-15.7 38.1-6.2 78.2 3 117q3.8 15.1 6.8 30.6c10.6 55.2-34 74.3-73.5 91.2q-21.2 8.9-45 17.6c-68.1 25.6-145.3 54.6-169.9 127.9-11.8 35.2-1.8 71.2 7.8 106q4.7 15.6 8.3 31.5c10.3 46.8 4 85.9-19.4 119.5-25.2 36.2-62.5 59.4-98.6 81.8-40.6 25.3-82.6 51.4-107.1 96.3a664 664 0 0 0-34.4 78.1 922 922 0 0 1-24.4 58.7 1164 1164 0 0 1-72 130.8c-18.2 28-41 43.6-64.4 43.6"/><path d="M3200 392.6a448 448 0 0 0-45.2 19.7q-14.3 7-26.6 12.2a354 354 0 0 1-129.9 28.4c-34.4 2.4-125.8 8.6-144.7-21q-8.1-12.7 2.8-33c29.5-78.7 80-144.9 138.6-181.5 44.3-27.8 95.9-45.1 145.7-62 19.6-6.6 39.7-13.3 59.3-20.7v-2.3c-19.8 7.5-40.1 14.3-60 21-50 16.9-101.6 34.3-146.2 62.1-59 37-109.7 103.6-139.3 182.6q-11.5 21-2.7 34.9c12.7 19.8 54.2 24.3 92.3 24.3 21 0 40.9-1.3 54.4-2.2l9.3-.7a355 355 0 0 0 121.2-28q12.4-5.3 26.7-12.2c14.2-6.8 29.4-14 44.3-19.3z"/><path d="M3200 354.9c-16.4 3.7-32.5 8.2-48.4 12.5a623 623 0 0 1-93 20.5c-20.4 2.4-84.4 1.7-100.5-21q-7.5-10.7 0-26.6c20.3-94.4 131.9-133.5 221.5-165q10.5-3.5 20.4-7.1v-2.3l-21 7.5c-90.2 31.6-202.4 71-222.9 166.3q-8 16.6.3 28.4c13.5 19.1 56.1 22.8 82.6 22.8 9.1 0 16.4-.4 19.7-.8a636 636 0 0 0 93.5-20.6c15.7-4.3 31.7-8.7 47.8-12.4zM1153 583.7c7.2 21 16.9 41.4 26.2 61.2 9.5 20 19.3 40.6 26.5 62 14.8 44 15 93.2.5 146.2a1085 1085 0 0 1-10.5 35.2c-9.9 31.7-20 64.4-21.5 98.3-1.6 38.1 17.8 73.6 36.6 108q7.1 12.8 13.3 24.8a277 277 0 0 1 28.7 112.9l.7 12.3c1.7 31.1 4.2 78.2 32 78.2a41 41 0 0 0 17.9-5c30.5-25.7 47.9-61.7 64.7-96.5 17-35.3 34.6-71.7 66-98.3 23-19.3 52.6-34.3 81.2-48.9 54.2-27.5 110.3-56 128-115.2 10.3-34.4.6-69.4-8.8-103.3q-2.9-10.2-5.5-20.3c-13.7-54-6.5-96.5 22.7-133.7 32.9-41.7 80.5-63.2 126.7-84 34.6-15.6 70.4-31.7 99.6-56.3 28.3-27.4 20.8-68.6 14.3-104.9q-2.2-11.6-3.7-22.4c-7.2-52.3 5.7-98.8 36.1-131 14.4-14.8 32-26.6 48.9-38 22-14.7 44.8-30 60.7-52q8.1-25.9-1.8-39.5c-7.7-10.5-21.6-12.7-32-12.7-16.2 0-35.8 5.5-52.3 14.6-33.7 18-71 32.3-107 46.2-67.2 26-136.8 52.9-188 104.3-75.6 76.2-147 148-261 163.7-19.5 2.7-39.3 3-56 3l-33.2-.1c-20.3 0-42 .5-63.7 4.2a125 125 0 0 0-63.7 28.4c-18 16.2-19.5 30.7-21.7 50.8zm132.6 741.2c-29.9 0-32.5-48.3-34.2-80.2l-.8-12.3c-1.3-38-11.7-78.9-28.4-112q-6.2-12-13.2-24.8c-19-34.6-38.6-70.4-37-109.1 1.5-34.1 11.7-67 21.6-98.8a1080 1080 0 0 0 10.5-35.2c14.4-52.6 14.2-101.4-.4-145-7.2-21.2-17-41.8-26.4-61.7s-19.2-40.4-26.4-61.7v-.5l.9-8c2.2-20.5 3.8-35.3 22.4-52 16.1-14.7 38-24.4 64.8-29a376 376 0 0 1 64-4.3l16.6.1h16.5a414 414 0 0 0 55.8-3c113.3-15.5 184.5-87.1 259.8-163 51.5-51.8 121.3-78.7 188.8-104.8 35.9-13.9 73-28.2 106.7-46a116 116 0 0 1 53.3-15c15.6 0 27.2 4.7 33.7 13.6q10.5 14.5 2.1 41.5l-.2.3c-16 22.5-39 38-61.3 52.9a295 295 0 0 0-48.5 37.6c-30 31.7-42.7 77.6-35.6 129.2q1.5 10.6 3.7 22.3c6.6 36.9 14.2 78.7-15 106.9-29.4 24.8-65.4 41-100.2 56.7-45.8 20.6-93.3 42-125.8 83.4-28.8 36.6-35.9 78.5-22.4 131.7l5.5 20.3c9.5 34.2 19.3 69.5 8.8 104.5-17.9 60.1-74.4 88.8-129 116.5-28.6 14.5-58 29.5-80.7 48.6-31.2 26.4-48.7 62.6-65.6 97.6-17 35-34.4 71.2-65.5 97.4a43 43 0 0 1-19 5.3"/><path d="M36.2 837.3c9.3-51.4 18.1-100 32.2-149.4C82.1 639.8 96.3 590 106 539.7q3-7.5 5.4-15c11-31 19.7-55.4 50.4-72 8.6-4.6 17.8-8.5 27.6-12.7 23.8-10 48.3-20.5 64.3-42 21.3-28.5 21.3-60 21.5-90.5 0-15.6 0-31.6 3-47.1 20.2-30.7 75.6-46 121-50.2h.4c52.5-9 103.1-3.3 142.5 15.7 81.8 39.7 134.4 118 166.9 173.5a341 341 0 0 1 44 116.3c2.2 12.8 3.8 26.1 5.3 39 3.6 30.2 7.3 61.3 19.4 89.8 33.8 79.5 99.8 66.6 163.6 54 14.1-2.7 28.7-5.6 42.5-7.3 43-5.5 83.6 6.4 108.5 31.7 20.7 21 29.1 49.7 24.5 83-11.2 80-80.3 152-141.3 192.6-3 2-7.8 4.8-13.3 8-26.2 14.8-65.8 37.2-67.6 62.5q-1 14.2 13.5 25.6c19 14.8 43.8 19.8 67.7 24.6 16.9 3.4 32.8 6.5 46.8 13 76.3 34.5 103.9 103.8 84.4 211.6a436 436 0 0 1-21.7 71.9c-7.8 21.4-16 43.5-20.7 66.4-8.8 41.3 3.9 77 39.7 112 36 35.4 79 62.8 120.6 89.4 38.6 24.7 78.6 50.2 112.6 81.9 26.6 24.9 55.1 57 38.6 85.7l-.3.7a1347 1347 0 0 0-34.5 101.3c-11.2 37.2-29 47.8-64.3 57.4-38.5 10.4-75.9 22-110.2 48-43.7 33-68.5 79-92.4 123.3-12.5 23-25.3 47-40.8 69a258 258 0 0 1-12.2 15.9h13.7q3.8-4.9 7.3-9.8c15.8-22.4 28.8-46.6 41.4-70 24.5-45.4 47.6-88.2 89.4-119.9 32.9-24.8 67.7-35.6 106.6-46.1 37.7-10.2 59.2-23 71.8-64.7a1341 1341 0 0 1 34-100.1c22.4-39.6-21.9-81-40.8-98.6-34.7-32.3-75-58.1-114.2-83-41-26.3-83.6-53.5-118.8-88-33.4-32.8-44.7-64.3-36.8-102.2 4.7-22.1 12.7-43.9 20.4-65 8.6-23.5 17.6-48 22.2-73.6 20.4-113.4-9.2-186.4-90.6-223.4-15-6.9-32.4-10.3-49.1-13.7-23.7-4.7-46.2-9.2-63.2-22.5q-10-7.8-9.4-16.3c1.4-19.5 41-42 62.1-54 5.8-3.3 10.8-6.1 14-8.3 63-42 134.3-116.5 146-200.1 5.2-36.7-4.3-68.6-27.4-92-27.3-27.7-71.2-40.7-117.5-34.9-14.2 1.8-29 4.7-43.2 7.5-62.4 12.2-121.3 23.8-151.8-47.8-11.5-27-15-57.3-18.5-86.7a736 736 0 0 0-5.5-39.6 352 352 0 0 0-45.5-120c-33.1-56.6-87-136.7-171.4-177.6-41.3-20-94.1-26-148.8-16.8-23.7 2.2-102 12.6-129.5 56l-.5.8-.2 1c-3.3 16.8-3.3 33.8-3.4 50.2 0 30-.2 58.4-19.3 84.2-14.2 19-37.4 28.9-59.9 38.4-9.6 4.1-19.4 8.3-28.4 13.2-34.4 18.5-44.2 46-55.5 77.8l-5.5 15.3-.2.8C85.9 587.2 71.8 637 58 685c-14 50-23.4 101-32.3 150.4l-4 22.4Q16 896.6 0 921.8v18.1q24.9-29.4 32.2-80.4zm2698.5-628.8c-17.4 0-47.1 17.7-64.9 28.4-5.8 3.5-10.5 6.2-13.2 7.5-46.6 21.7-94.8 38-135.8 51l-4.6 1.4c-35.8 11.4-69.6 22.1-101.7 41.3-37.9 22.6-63.4 56.9-83.4 87.4a1001 1001 0 0 1-76.8 104.6q-7.2 8.4-15.5 17c-24.9 26.8-53 57.2-49.2 93.7 18 76.9 94.3 131.7 159.7 157.3a539 539 0 0 0 188.7 37.1 329 329 0 0 0 59.8-5c36.5-6.9 64.7-25.5 81.7-54 18.6-31.3 21.9-72.7 8.8-113.6q-7.2-21.7-14.6-42.5c-23-64.6-44.7-125.6-19.3-197.2 11-31 27.8-59.8 44-87.6q3.7-6 7-12.1l8.4-13.9c15.9-26.2 35.6-58.9 34.4-87.2q-.5-13.7-13.5-13.6M2538 837.4a541 541 0 0 1-189.5-37.3c-65.9-25.8-142.7-81.1-161-159-4-37.5 24.6-68.3 49.8-95.4l15.4-17a994 994 0 0 0 76.6-104.4c19-29 45.6-65.1 84-88 32.4-19.4 66.3-30.1 102.2-41.5l4.6-1.5c41-13 89.1-29.2 135.6-50.8 2.6-1.2 7.2-4 13-7.5 18-10.7 48-28.7 66-28.7q15 0 15.7 15.7c1.2 29-18.8 62-34.8 88.4a718 718 0 0 0-15.3 26c-16.2 27.7-33 56.5-43.9 87.2-25.1 70.9-3.6 131.5 19.3 195.8q7.5 20.7 14.6 42.5c13.3 41.5 10 83.6-9 115.4-17.2 29-46 48-83.2 55a331 331 0 0 1-60 5M3200 288.6c-19.2.9-38.5-.7-50.8-14.5-5.1-15.9 24-33.5 50.8-46.4v-2.4c-28.4 13.5-58.8 32-52.8 49.7l.2.4c11.2 12.6 27.5 15.5 44.5 15.5l8.1-.2z"/><path d="M1082.7 1236.9c-22.5-67.2-83.3-74-142.1-80.8-25.6-2.9-52-5.9-74.3-14a75 75 0 0 1-43.3-40.3 55 55 0 0 1 .4-45c16.6-37.5 44.6-63.6 85.8-80 78-31.3 181.6-84.4 179.7-185.2q-.8-38.1-23.2-55.4c-34.7-26.6-101-10-149.5 2.1a611 611 0 0 1-32 7.5c-81.2 15.5-124-52.3-136-115a1621 1621 0 0 1-13.2-86.7 2181 2181 0 0 0-9.2-63.1v-.3c-7.9-14.7-14.3-30-20.4-44.8-9-21.6-18.3-43.9-32.3-64.7C615 285 550.6 237.5 481.2 230c-30.1-3.2-86.3-2.5-124.2 38.4-21.8 23.6-29 55.4-35.8 86.1l-3.1 13.7c-11.4 48.1-30.9 78.2-63.2 97.4a317 317 0 0 1-39.5 19c-24.3 10.3-47.1 20-66.5 41.1-26 28.4-38.8 69.4-50 105.6l-4.6 14.5c-13.3 41.5-28 89.8-35 138.2-1.8 13-2.9 28-4 44-4 57.4-9 126.5-55.3 154.5v2.6c48.3-28 53.3-98.5 57.4-157 1.1-15.8 2.2-30.8 4-43.8 7-48.2 21.7-96.5 35-137.9l4.5-14.5c11.2-36 23.9-76.7 49.5-104.7 19.1-20.9 41.8-30.5 65.8-40.6 13.1-5.6 26.7-11.3 39.8-19.1 32.9-19.6 52.6-50 64.1-98.8l3.2-13.7c6.8-30.5 13.8-62 35.3-85.1 37.2-40.3 92.7-41 122.4-37.7 68.8 7.3 132.8 54.5 190.3 140.2a364 364 0 0 1 32.1 64.4c6.2 14.7 12.5 30 20.4 44.7 3.4 20.8 6.3 42.2 9 62.9 3.9 28.6 7.9 58.1 13.4 86.9 7 36.9 23 68.9 45 90a102 102 0 0 0 93.4 26.6 552 552 0 0 0 32-7.5c48.1-12 113.9-28.5 147.8-2.5q21.5 16.6 22.3 53.7c2 99.5-100.8 152.2-178.3 183.2-41.7 16.6-70.1 43.1-87 81a57 57 0 0 0-.3 46.9 77 77 0 0 0 44.5 41.5c22.5 8.2 49 11.2 74.7 14 58.2 6.7 118.3 13.5 140.3 79.4 22.6 67.2-7.3 168.7-61.5 208.7-36 26.6-71 6.7-103.2-18.8a745 745 0 0 0-120.5-78.3c-33.5-17.2-71.3-22-107.7-26.7-38-4.8-77.1-9.8-110.6-29-26-15-43-41.4-59.6-67l-10.2-15.4c-21.6-32-45.3-65.4-77-90.2-68.8-53.8-154-44.6-235.7-26.7-64.7 14.2-107.6 62-132.3 99.8-9 13.8-16.9 29.7-24.4 45-11 22.5-22.1 45.3-37.9 63.6v3.3c16.8-18.8 28.5-42.6 39.8-65.9a426 426 0 0 1 24.3-44.8c24.4-37.4 67-84.9 131-99 81.2-17.7 165.8-26.9 234 26.4 31.3 24.5 55 57.8 76.5 89.7q5.1 7.6 10.1 15.5c16.6 25.7 33.9 52.4 60.4 67.6 33.8 19.4 73.2 24.4 111.3 29.3 36.3 4.6 73.8 9.3 107 26.4 40.9 21 81.3 47.3 120.2 78 21.8 17.3 44.7 32 68.6 32 12.2 0 24.6-3.8 37.2-13.1 54.8-40.5 85-143 62.3-211.1"/><path d="M1011 1219.4c-29.5-20.3-69.4-21.5-108-22.7-53.9-1.6-104.7-3-130.8-51.3-34.1-62.9 16.5-154 56.3-196.6q19.7-21 42.8-34.2c9.6-5.5 20.2-8.4 30.4-11.2 8.6-2.4 17.6-4.8 25.8-8.9 38.4-6.9 93.6-35.4 96.4-77.2q1.2-19.8-11.3-29.2c-15.7-11.3-45.7-7.2-66.9 1.4q-12.4 5.3-24.3 11.3c-26.4 12.8-53.7 26.1-84.3 16.6-72.8-22.8-113.9-113.2-122.2-192.6l-2.2-20.7c-7.7-76.4-14.4-142.4-57.1-210.7-26.3-42-98-138.2-195.5-127-64.2 7.5-79.4 59.3-94.2 109.3a641 641 0 0 1-10.3 32.8c-7.6 34.8-18 73.8-45.4 96.7-18 15-40.3 20.5-61.7 25.7-16.2 4-32.8 8-48 16.1-58.1 31-79.6 97.3-98.5 155.8l-1.7 5.3C83.7 759 83.6 812.5 83.5 864c0 17-.1 34.7-.7 52.2-1.2 31-2.6 69.7-21.1 96.2-13.8 19.6-37 25.9-61.7 27.3v2.2c23.2-1.5 49-7.6 63.5-28.3 18.9-27 20.3-66 21.4-97.4q.8-26.4.7-52.2c.1-51.4.2-104.5 16.7-155.3l1.7-5.3c18.8-58 40.1-123.8 97.6-154.5 14.8-8 31.4-12 47.4-15.9 21.7-5.3 44.2-10.8 62.6-26.2 28-23.3 38.4-62.7 46-97.7 3.8-10.6 7.1-21.9 10.3-32.8 14.6-49.4 29.7-100.4 92.5-107.7 96.3-11.2 167.3 84.4 193.3 126 42.5 67.8 49.2 133.6 56.9 209.7l2.1 20.8c8.5 80 50 171.2 123.8 194.3 31.3 9.8 59-3.7 85.8-16.7q12-6 24.2-11.2c20.7-8.4 49.8-12.5 64.8-1.6q11.7 8.5 10.5 27.3c-2.7 40.7-57 68.5-94.8 75.3h-.3c-8 4-17 6.5-25.6 8.8-10.3 2.9-21 5.8-30.9 11.4a185 185 0 0 0-43.2 34.6c-40.3 43.1-91.3 135.3-56.7 199.1 26.7 49.3 80.5 51 132.6 52.5 38.3 1.1 78 2.3 107 22.2 33.7 23.2 41.5 68.5 34.4 103-8 38.6-32.6 65.5-65.6 71.9-35.2 6.8-73.6-17.8-104.5-37.5l-8.6-5.5-18.8-12c-25.9-16.7-52.6-34-81.5-46.2a308 308 0 0 0-69.5-17.5 379 379 0 0 1-56-12.5c-43-14.3-71.5-41.3-96-68.4q-11-12.2-22.3-25.4c-44.4-51.2-90.3-104.1-158.2-115-38.4-14.5-91-8.4-133.4-3.6l-19.2 2.2q-13 1.2-27.3 2c-29.9 1.8-60.8 3.6-85.4 16.6-26.9 14-40.6 40.7-53.9 66.4q-4.5 8.9-9.1 17.3c-7.6 12.2-14.6 25.5-21.3 38.2Q7.1 1208 0 1220.5v4.3q8.2-14.2 15.6-28.7a613 613 0 0 1 21.2-38q4.8-8.7 9.3-17.5c13-25.4 26.6-51.8 52.9-65.5 24.2-12.8 54.9-14.6 84.6-16.4q14.3-.6 27.3-2l19.3-2.1c42-4.9 94.5-11 132.6 3.6 67.3 10.7 112.9 63.3 157 114.2q11.4 13.2 22.4 25.4c24.7 27.4 53.5 54.6 97 69 18.4 6.2 37.6 9.5 56.3 12.6 23 4 46.7 8 69 17.4 28.7 12.2 55.4 29.4 81.2 46l18.8 12 8.6 5.5c27.5 17.6 61 39 93.2 39q6.3 0 12.8-1.2c34-6.6 59-34 67.3-73.5 8.8-42.4-5.4-84.7-35.3-105.2m315.7-107.4h.9c27.3 0 56.2-15.4 84.1-30.3a452 452 0 0 1 34.7-17.2q15-6.2 32.8-12.5c34.2-12.5 72.9-26.6 94.5-50l.2-.3c23.2-22.2 43.9-45 43-79.7-.5-22.6-6.6-44.9-12.5-66.4s-12-43.7-12.8-66.7c-4-100.8 96-153.5 169.2-192l11-5.9c36.3-19 73.7-38.8 83-79.3 6.2-26.5 1.3-54.4-3.5-81.3a404 404 0 0 1-6.2-44.8q-.5-10.6-.4-22.6c.1-22.9.3-48.8-12.2-61.3q-9.7-9.9-30-8.3a219 219 0 0 0-120.6 50c-21 16-40.7 33.1-59.9 49.7-45.7 39.8-93 80.9-155.3 102.7-39 13.6-79 18.8-117.6 24q-23.4 2.8-47.4 6.7c-65.9 10.9-95.5 37.5-90.4 81.4 4.1 18.5 9.5 37.1 14.7 55 7.2 25.2 14.8 51.1 19.1 77.6 8.9 53.2-2.2 103.4-13 152-9.8 44-16.3 83.8 3 126.7 18.5 41.6 52.3 87.7 91.6 92.7m.9 10.7h-1.9c-55.2-6.8-90.8-77.6-100.4-99-20.6-46-13.5-89.4-3.7-133.6 10.6-47.5 21.5-96.7 13-147.9a653 653 0 0 0-19-76.2c-5.2-18.2-10.6-37-14.9-56v-.5c-6-50.3 27.5-81.8 99.3-93.7q24.1-3.8 47.7-6.8c40-5.2 77.6-10.2 115.4-23.4 60.5-21 105-59.7 152-100.6 19.2-16.7 39-34 60.2-50 35.9-30 82-49 126.4-52.3q25.1-1.9 38.4 11.4c15.6 15.7 15.5 44 15.3 68.9q-.1 11.8.4 22c.9 14.3 3.5 29.1 6 43.5 5 28 10.2 57 3.5 85.6-10.4 45.3-51.9 67.2-88.4 86.4l-11.1 5.9c-74.5 39.2-167.3 88-163.5 182.1.8 21.8 6.7 43.4 12.5 64.2 6 22.2 12.3 45.1 12.9 69 1 39-22.3 64.7-46.3 87.7-23.3 25.3-63.3 39.8-98.6 52.7q-17.5 6.2-32.2 12.3c-10.7 4.5-22 10.5-33.9 16.9-29 15.4-59.1 31.4-89.1 31.4"/><path d="M268.4 583.6c-38.3 0-66.3 9.7-90.7 31.5-60.2 70.3-70.1 159.6-67.8 222 2.1 13.5 3.5 27.5 4.9 41 3.2 31.2 6.4 63.3 19 92.6 21 49 73 49.3 119 49.5h10c41.8.3 85 .5 125.7 13 32.7 10.2 56.1 28.3 81 47.6q9.5 7.5 19.8 15.1c10.7 9.4 21.5 20.3 33 31.8 39.4 39.4 84 84 136.2 84q17.4 0 34.7-6.6c20-16 20.6-49.2 21.1-78.5.3-13.7.6-26.7 2.7-37.4 6.5-33.8 19.3-66.2 31.7-97.5 5.6-14.2 11.4-29 16.5-43.6 16.5-47 14-77-10.1-123.5l-10.8-20.3c-19.2-36.1-39-73.4-49.3-113.8-8.7-33.6-10.4-68.2-12.1-101.6-2.3-43.5-4.6-88.5-22.1-131.6C635 394.3 564.3 301 494.3 301a81 81 0 0 0-30.3 6c-58.9 23.5-69.2 90.4-79.3 155-4.7 30.3-9.2 59-18.4 82.3-14.1 35.8-49 40-74 40q-5.2 0-11.3-.4zm390 630.3c-53 0-98-45-137.6-84.7a733 733 0 0 0-32.8-31.6q-10.2-7.6-19.9-15.1c-24.6-19.2-47.9-37.2-80.3-47.2-40.3-12.4-83.3-12.7-125-13h-10c-46.6-.2-99.5-.4-121-50.7-12.7-29.6-16-62-19.1-93.2a722 722 0 0 0-5-41c-2.3-63 7.7-152.9 68.5-223.8 25-22.2 53.3-32.1 92.2-32.1q6 0 12.7.3l11.3.3c39.2 0 61.4-12 72-38.6 9-23.2 13.5-51.6 18.2-81.8 10.1-65.2 20.6-132.7 80.6-156.8q15-6 31-6c71.1 0 142.6 94 168.5 157.6 17.7 43.4 20 88.6 22.3 132.3 1.7 33.3 3.5 67.8 12 101.2 10.3 40.1 30 77.3 49.2 113.3l10.8 20.3c24.5 47.1 27 77.5 10.2 125.3-5.1 14.6-11 29.3-16.5 43.6-12.4 31.2-25 63.5-31.6 97a230 230 0 0 0-2.6 37.2c-.6 29.8-1.3 63.7-22.1 80.1l-.3.2a98 98 0 0 1-35.6 6.9M2566 322c-44.7 0-100.5 24-126.3 38.3-51.5 28.2-85.5 75.8-118.4 122l-5.4 7.5a583 583 0 0 1-21.8 27.7c-30.7 37.5-68.8 84.2-61.8 124.6 15.4 119 176.3 162.1 280.7 162.1q13.4 0 25.6-.9c56.9-4.1 122.7-33 120.9-100.4-1-35.4-12.1-69.3-23-102-8-24.4-16.3-49.6-20.4-75.3a343 343 0 0 1-1-96.5l2.8-16.3c5.1-27.1 11.3-61-7.6-78.3q-16-12.5-44.3-12.5m-53 484.4c-105.1 0-267.3-43.7-282.9-164-7.1-41.3 31.4-88.4 62.3-126.3 8.2-10 15.9-19.4 21.7-27.5l5.4-7.6c33.1-46.3 67.3-94.2 119.1-122.6 26.1-14.3 82.3-38.6 127.4-38.6q29 0 45.7 13c19.9 18.3 13.5 52.7 8.4 80.4q-1.7 9-2.8 16.2a343 343 0 0 0 .9 95.8c4 25.6 12.4 50.7 20.4 75 10.9 32.9 22 67 23 102.7 1.9 69-65 98.4-122.9 102.6q-12.3.9-25.6.9"/><path d="M542.8 1085.6c19 14.5 45 34.1 68.8 34.1a40 40 0 0 0 26.9-10.3c29.3-25 45.1-80.3 56.7-120.6l3.6-12.5c13.2-44.7 19.2-81 8.8-124-6.3-26.1-16.5-51.7-26.3-76.5q-9.2-22.5-17.3-45.7c-14.2-41.4-14.8-84.4-15.5-126.1-.7-43-1.4-87.3-17.1-128.5-18.1-47.4-80-117.7-128.5-117.7q-35 .2-53.7 47.3c-13 32.8-13.5 69.3-14 104.5q0 11.4-.4 22.9l-.3 12c-.8 40.1-1.8 85.5-35 116.2l-.5.5a74 74 0 0 1-43.6 13.5c-19.4 0-39-6.2-58.1-12.2-18.4-5.9-37.4-11.9-55.3-11.9a65 65 0 0 0-36.5 10.6c-55.9 44.8-61.9 117.7-57 171v.3c6.8 35 13.8 71.2 34.9 100.1C212.2 972 257 975 304.8 978.2h2.9c100 0 168.3 50.8 235.1 107.4m68.8 44.9c-27.4 0-55-21-75.3-36.3l-.3-.3c-68.5-58-133.1-106-231.3-104.9h-.4c-48.2-3.3-97.8-6.6-129.6-50-22.5-30.8-29.7-68.3-36.6-104.5l-.2-1c-5.2-56 1.2-133 61.1-180.8l.4-.3a75 75 0 0 1 42.6-12.5c19.5 0 39.4 6.2 58.5 12.3 19.1 6 37.2 11.8 54.9 11.8 14 0 26.1-3.8 37.2-11.4C422 625 423 584 423.8 544.3l.3-12.1.4-22.7c.4-36.2 1-73.7 14.7-108.4 17.8-44.6 44.4-54 63.7-54 55.5 0 119 73.8 138.5 124.6 16.4 43 17.1 88.3 17.8 132.1.7 40.9 1.3 83 14.9 122.8 5.2 15.2 11.3 30.5 17.1 45.2 10 25.1 20.3 51 26.9 78 10.9 45.2 4.3 84.4-9 129.5l-3.6 12.5c-12 41.6-28.3 98.6-60 125.8a51 51 0 0 1-34 12.9m1558.7-771.1c-25.8 0-54 11.9-70 29.6a48 48 0 0 0-13.9 37.3 47.4 47.4 0 0 0 48.3 37.7c32.6 0 72.5-25.9 77.5-63q2.4-18.1-7-29c-7.1-8.1-19.6-12.6-35-12.6m-35.6 106.8c-25 0-43.4-14.4-50.4-39.5a51 51 0 0 1 14.3-39.2 102 102 0 0 1 71.7-30.3c16 0 29 4.8 36.5 13.5q10 11.5 7.5 30.6c-5.1 38.2-46.1 64.9-79.6 64.9M1314.9 1013c23.6 10.3 47 15.3 71.6 15.3 17.9 0 37-2.6 58.6-8l4.6-1.1c37.8-9.4 85-21.1 111.8-51.2 27.1-30.4 22.5-70.1 15.6-101.4l-4-16.8c-7.3-30.5-14.9-62-7-93.9 12.7-50.7 47.2-85.5 82.7-115.6a407 407 0 0 1 62.3-40.3c55-31.2 111.7-63.5 106.4-132.8-2.8-37.2-16.4-85.8-45.3-100.1a62 62 0 0 0-27.6-6.3c-30.2 0-61.5 19.6-85.3 36.8q-15 10.7-29.4 21.4c-56.5 41.3-109.8 80.3-180.8 101.9-14.3 4.3-31 7.7-48.8 11.4-70.8 14.5-151 31-144 111.3a1008 1008 0 0 0 10 52.9c6 28.8 12.3 58.6 13.7 88.6 1.1 24.9-1.4 49.8-4 74a705 705 0 0 0-4 51.5c-1.3 43.4 11.5 74 42.9 102.4m71.6 17.5a177 177 0 0 1-72.6-15.6l-.3-.2c-32-28.8-45-60-43.8-104.1a703 703 0 0 1 4.1-51.7c2.5-24.1 5-49 4-73.6-1.5-30-7.7-59.6-13.7-88.4a943 943 0 0 1-10-53c-7.1-82.3 77.6-99.7 145.6-113.7 17.8-3.7 34.5-7 48.6-11.4 70.7-21.4 124-60.3 180.2-101.6l29.5-21.4c24-17.3 55.7-37.2 86.5-37.2q15.4 0 28.5 6.6c29.8 14.7 43.7 64 46.6 101.8 5.4 70.7-52 103.3-107.6 134.9a404 404 0 0 0-62 40c-35.1 29.9-69.4 64.4-81.9 114.5-7.8 31.4-.2 62.7 7 93l4 16.7c7 31.8 11.6 72.2-16 103.3-27.3 30.6-74.9 42.4-113 51.9l-4.6 1.1c-21.7 5.4-41 8-59 8m1121.8-646.7c-29.8 0-63 15.8-84 30.6-38 26.8-67.6 65-96.9 105.2-29.7 40.6-58.9 88-51 131C2293.7 734.6 2403.3 773 2498 773q6.5 0 12.6-.2c60.4-2.6 100.4-31.2 109.6-78.7 1.4-42.2-11-84.1-23.2-124.7q-4.8-15.9-9.3-32.1a483 483 0 0 1-8.4-45.8c-4.7-31-9.5-63-26.6-90.5a59 59 0 0 0-44.2-17.4M2498 775.3c-95.4 0-206-39-223.5-124.5-8-43.8 21.4-91.6 51.4-132.6 29.4-40.3 59-78.7 97.4-105.7 21.3-15 54.9-31 85.2-31q28.6.1 45.9 18.2c17.4 28 22.3 60.4 27 91.6 2.3 15 4.6 30.6 8.4 45.5q4.4 16.2 9.3 32.1c12.1 40.7 24.7 82.9 23.2 125.6-9.4 48.7-50.1 78-111.6 80.5q-6.2.3-12.7.3"/><path d="M245.5 722c-15.4 0-28 6-38.6 18.4-16 18.8-21 47.2-15 87 12.3 44 33.7 73 63.4 86 23 10.1 48 12.2 72 14.1 16.1 1.3 32.8 2.7 49 6.5a343 343 0 0 1 107.5 47q11.3 7.5 23 16.4c24.3 18 49.4 36.7 78.4 36.7q4.1 0 8.2-.5c68.2-30.2 80.7-136.7 63.5-202-6-22.6-14.3-44.8-22.3-66.2a786 786 0 0 1-18.2-51.6c-13.1-42.6-11.4-80.5-7.8-125.6 2.4-29.8 3.3-68.6-11.3-103.7-12.8-31.2-39.6-62.6-70.3-62.6a48 48 0 0 0-7.8.6C470 438.8 478.8 509 486.6 571c3.7 29.3 7.2 57 3.5 74.8a147 147 0 0 1-61 91.6 105 105 0 0 1-58.3 18c-18.5 0-38-4.5-63.1-14.8l-7.5-3.1c-18.1-7.6-36.9-15.4-54.7-15.4m339.6 314.3c-29.7 0-55-18.9-79.6-37a341 341 0 0 0-129.6-63.1c-16-3.9-32.7-5.2-48.8-6.5-24.2-2-49.3-4-72.6-14.3-30.4-13.3-52.1-42.8-64.7-87.6-6-40.5-1-69.5 15.5-88.8a50 50 0 0 1 40.2-19.2c18.3 0 37.2 8 55.5 15.6l7.5 3c25 10.3 44.1 14.8 62.3 14.8 19.9 0 38.6-5.8 57.2-17.7 29.5-19 52.5-53.6 60-90.2 3.6-17.5.1-45-3.5-74.1-8-62.8-17-133.9 34.1-150.7q4.3-.7 8.3-.7c31.7 0 59.2 32.1 72.3 64 14.7 35.5 13.9 74.6 11.5 104.7-3.6 44.8-5.3 82.5 7.6 124.8a883 883 0 0 0 18.2 51.4 686 686 0 0 1 22.4 66.4c17.4 66.1 4.5 174-64.9 204.6h-.3a69 69 0 0 1-8.6.6M1716 425c-35.2 0-80.8 31.3-108 50l-9 6c-53.7 36.2-111.1 55.4-180.6 76.7-60.5 18.7-129.1 39.7-116.1 124.8q4.3 22.3 9.4 44.2c4.8 21.6 9.8 44 13.3 66.4 2 13.1 3.1 26.6 4.2 39.8 1.9 23 3.8 46.8 11 69 12 37.6 46.7 60 93 60 18.6 0 37.5-3.8 54.7-10.9 50-20.7 44-64.8 37.8-111.5-3-21.7-6-44.2-2.6-63.7 14.4-84.9 85.2-145.1 126-173.5q11-7.5 24.4-15.7c46.1-28.8 109.2-68.3 87.3-127.3Q1748.1 425 1716 425m-282.9 539c-47.2 0-82.7-23-95-61.4a305 305 0 0 1-11-69.6c-1.1-13-2.2-26.5-4.3-39.6-3.4-22.2-8.4-44.6-13.2-66.3q-5-21.8-9.4-44.2c-13.4-87 56.2-108.4 117.5-127.2 69.4-21.3 126.6-40.5 180.2-76.5l8.8-6c27.5-18.9 73.4-50.4 109.3-50.4q33.5 0 46.8 35.7c22.6 60.7-41.4 100.7-88.1 130a642 642 0 0 0-24.3 15.6c-40.6 28.2-111 88-125.2 172.1-3.3 19.2-.3 41.5 2.6 63 6.1 45.5 12.4 92.4-39.1 113.8-17.4 7.2-36.6 11-55.6 11M59.7 494.8c-8.8-29.5-36.1-45.5-59.7-54v2.4c23 8.3 49.2 23.8 57.7 52.2 7 23.7 6.4 50.5 5.3 68.7-.5 8-2.2 16.8-4 25.3-2.3 12-4.7 24.2-4 35.5 1 13.4-5.2 31.5-10.6 47.6l-5.5 17.4-8.9 31.3c-5 17.7-10.1 36-14.7 54q-3.9 15.4-7 31-3.7 18.2-8.4 36.2v8a606 606 0 0 0 10.5-43.8c2.1-10.2 4.4-20.8 7-30.8 4.5-18.1 9.7-36.4 14.7-54q4.5-15.6 8.7-31.3l5.6-17.3c5.4-16.3 11.7-34.6 10.7-48.5-.8-11 1.6-23 4-34.9 1.7-8.5 3.4-17.4 4-25.6 1-18.3 1.6-45.4-5.5-69.4M2311 643.5c16.8 70.7 99.2 102.8 168.7 102.8q8.7 0 17-.6c46.5-3.9 74.4-20.3 85.4-50 13-35.1 1.9-75.2-8-110.6l-3-11.2q-2.5-8.9-4.8-18c-9.2-35.6-18.7-72.4-39.4-100.5a52 52 0 0 0-43.5-21.6c-19 0-37 7.7-48.8 14.3-70.3 39-121 119.3-123.6 195.4m168.7 105c-70.4 0-153.8-32.7-170.8-104.6v-.3c2.5-76.9 53.8-158 124.7-197.4 12-6.7 30.4-14.6 49.8-14.6q28.5 0 45.2 22.5c21 28.5 31 67.1 39.8 101.2l4.7 18 3 11.2c10 35.7 21.3 76.2 8 111.9-11.3 30.6-39.8 47.5-87.2 51.4q-8.5.7-17.2.7"/><path d="M27.9 513.7c-5.7-10.7-16-24.4-27.9-35v3c11 10 20.5 22.6 26 33 14 26.8 17 64 8.8 110.4A910 910 0 0 1 0 753.6v6.7a944 944 0 0 0 37-134.8q12.3-70.7-9.1-111.8M3200 904.2l-16.4-11q-7.1-5-12.9-8.8a485 485 0 0 1-68.8-52.2 335 335 0 0 1-54-62.6c-9-13.6-15.2-29.4-21.3-44.8-6.2-15.7-12.6-32-21.8-45.5q-9.7-16.6-5.1-31c7.9-24.5 45-40.4 74.6-53.3 12.1-5.2 22.6-9.7 29.6-14.1a430 430 0 0 0 66.2-54.6c9-8.8 19.5-16.9 29.9-24.7v-2.7a341 341 0 0 0-31.4 25.9 420 420 0 0 1-65.9 54.3c-6.8 4.3-17.2 8.8-29.2 14-30.1 13-67.6 29.1-75.9 54.6q-5 15.4 5.4 32.8a229 229 0 0 1 21.6 45.1c6.1 15.4 12.4 31.4 21.4 45.2q21.6 32.9 54.4 63 30.2 27.8 69.2 52.4l12.8 8.7q8.3 5.9 17.6 11.8zm-737-413.1q-7.2 0-14.7 1.9c-54 13.3-94.1 80.6-96.3 132.6 3 52.4 61.3 85 113.5 85 27.5 0 50.5-8.7 65-24.3q19-21 16.4-55.2c-3.9-48.4-26.5-140-84-140m2.5 221.6c-53.2 0-112.6-33.3-115.6-87 2.2-53 43-121.3 97.8-134.8q7.9-2 15.2-2c59 0 82.2 93 86.1 142q2.9 35.2-17 56.8c-14.8 16.1-38.4 25-66.5 25"/><path d="M0 534.6v4.8c13.5 28.2 14.1 61.1 11 88-2 17.9-6.2 35.4-11 52v7.5a336 336 0 0 0 13.1-59.3c3.3-28.4 2.5-63.6-13.1-93M1659.8 502c-22.5 0-50 15-74.5 28.1a308 308 0 0 1-33.6 16.6c-14.6 5.5-33.6 10.3-53.8 15.5-72 18.2-161.6 41-154.6 117.6 8.4 39 47.2 142 84.8 142q17.4 0 31.9-29.4c43.2-87.6 93-156.7 152.4-211.2l5.6-4.7c15.5-12.8 62.7-51.8 59.2-67.5q-.9-4.2-7-5.7-4.8-1.2-10.4-1.3M1428 824c-41.4 0-80.6-114.6-87-144-7.1-78.5 83.5-101.5 156.2-120 20.2-5 39.1-9.8 53.7-15.3 9.6-3.7 21-9.9 33.3-16.5 24.6-13.3 52.5-28.3 75.5-28.3q5.9 0 11 1.3 7.3 1.9 8.5 7.4c3.8 16.9-42.5 55.2-60 69.6l-5.5 4.6c-59 54.3-108.8 123.2-151.9 210.6q-15.1 30.5-33.8 30.5m1772 45.7-7.2-5.4a334 334 0 0 1-48-40.4c-14.8-15.2-62.2-68-52.1-110.4 4.2-38.7 28.3-66 57-95.4 10.9-11.5 21.6-23.5 32-35.1q9-10.3 18.3-20.5v-3.2l-1.5 1.7-18.4 20.5c-10.4 11.6-21 23.6-31.9 35-29 29.7-53.3 57.4-57.6 96.7-10.3 43.2 37.7 96.8 52.6 112.2a335 335 0 0 0 48.4 40.7q3.5 2.5 8.4 6.3zm-748.5-308.2c-25.6 4.5-44 29.5-42.1 57.1A43.5 43.5 0 0 0 2453 655c13 0 25.1-5.4 32.6-14.5a42 42 0 0 0 7.5-35.5c-4.4-22.5-21-40-41.6-43.5m1.5 95.6c-17.5 0-40-10-45.7-38.2-2-29 17.3-55 44-59.5h.4a55 55 0 0 1 43.5 45.2c2.7 14.7 0 27.6-8 37.3A44 44 0 0 1 2453 657"/><path d="M3200 834.8a141 141 0 0 1-21-17.9c-18-19.3-39.3-50.1-39.3-86.8 0-33.6 21.4-65 40-88.7q9.8-12.5 20.3-24.5v-3.3q-11.4 13-22 26.5c-18.8 24-40.3 55.8-40.4 90 0 37.4 21.6 68.7 39.9 88.3a148 148 0 0 0 22.5 19zm-1736 607.7c8.7 41.2 41.4 62 97.3 62 56.8 0 119.6-21.3 144-30.5 91.4-34.4 157.7-87 197.2-156.4 14-24.8 25.6-51.7 36.7-77.7 23.1-53.6 47-109.2 94.3-149.3 59.7-50.6 151.7-80.6 273.4-89.4q13.2-1 29-1 21.6.2 42.7 1.2c13.8.5 28 1 41.7 1 47 0 96-5.8 136-48q21.6-23 17-39.6c-3.6-12.3-18.4-22.3-42.9-28.7-21.8-5.7-44.3-10.6-66-15.4a1598 1598 0 0 1-73.7-17.4c-82-22.4-145.6-64.1-212.7-139.6l-11.7-13.4c-24.1-28-51.5-59.7-87-68.8-55.2 1.4-101.8 6-146.8 14.5l-3.9.7c-75.4 14.3-189.4 35.8-218.6 116.7-11.8 32.5-3 68.3 5.4 102.9q3.7 14.5 6.7 28.9c10.2 51.8 5.4 93-15 130-21.2 38.4-55.6 64.7-88.8 90.2-31.4 24-63.8 48.8-84 83.5-21 36.3-38.4 79-53.2 130.7-7 24.4-13 49-17.3 67.7q-.1 9.3.2 18.6.6 13.2 0 26.6m97.4 72.8c-61.2 0-98.5-24.6-108-71.3l-.1-.7v-.6q.6-13.2 0-26.5-.3-9.7-.2-19.7l.1-1.1a1489 1489 0 0 1 17.6-68.7c15-52.6 32.8-96.2 54.3-133.2 21.2-36.5 54.5-62 86.7-86.7s65.8-50.4 86-86.9c19.1-34.5 23.5-73.5 13.8-122.6q-2.8-13.7-6.6-28.5c-8.8-36.1-18-73.5-5.1-109 31.4-86.7 149-109 226.7-123.6l4-.8a903 903 0 0 1 149-14.6h.8l.7.1c39.3 9.6 68 43 93.3 72.3l11.6 13.3c65.6 73.9 127.7 114.6 207.5 136.4 24.2 6.6 49.1 12 73.2 17.3 21.8 4.8 44.4 9.7 66.4 15.5 28.4 7.4 45.8 20 50.4 36.2q6.4 22.6-19.4 49.8c-42.8 45.3-94.4 51.5-143.8 51.5-13.9 0-28.2-.5-42-1q-21.2-1-42.4-1.2-15.4 0-28.3 1c-119.4 8.5-209.3 37.8-267.2 86.8-45.4 38.5-67.7 90.4-91.3 145.4-11.3 26.2-23 53.4-37.3 78.7-40.7 71.7-109 125.9-202.8 161.2-24.9 9.4-89.2 31.2-147.6 31.2"/><path d="M3200 779.4a100 100 0 0 1-10.4-43.2q.3-20.3 10.4-42.9v-5q-12.2 25.3-12.5 47.9c-.3 15.4 4.4 32.3 12.5 48zM2001 658.8h-4.4c-136.7 2-224 33-259.6 92-24.7 40.9-15.1 86.6-5 135 8.7 41.7 17.7 84.9 2.8 124.9-17.9 47.8-55 79.2-90.9 109.7-21.2 18-43 36.5-61 58.3-47.8 58.3-76.9 146.6-72.3 219.6 7.3 43.8 38.5 66 92.6 66 50.3 0 108.4-19.7 143-36.6 80.8-39.6 140.8-105.3 178.4-195.1l4.2-10.3c14.7-35.3 29.8-71.9 53.7-102.9 26-34 65.4-61.6 123.8-86.7 54.7-23.5 112.4-38.5 168.3-53 39.9-10.4 81.1-21.1 121-34.9q20.5-7 21-16.7c1-15-33.6-32.2-54.3-42.4l-9.5-4.8c-39.3-21-84.2-46.2-119.7-81.4a621 621 0 0 1-48.1-46.4c-16.8-17.4-34.1-35.4-53.3-50.7-37-29.7-78.6-43.6-130.7-43.6m-397.8 807.7c-54.5 0-87.3-23.5-94.7-68-4.6-73.6 24.6-162.5 72.8-221.1 18-22 40-40.6 61.2-58.7 35.7-30.2 72.6-61.5 90.2-108.8 14.8-39.4 5.8-82.2-2.9-123.7-9.7-46.7-19.8-95 5.4-136.6 36-59.6 123.9-90.9 261.4-93h4.4c52.6 0 94.6 14 132 44.1a587 587 0 0 1 53.5 50.9 644 644 0 0 0 48 46.4c35.4 35 80.1 60.1 119.3 81l9.5 4.8c21.2 10.5 56.6 28 55.5 44.5q-.6 11-22.5 18.6c-40 13.7-81.2 24.5-121.2 34.8-55.8 14.5-113.4 29.5-168 53-58 25-97 52.3-123 86-23.6 30.8-38.7 67.2-53.3 102.4l-4.3 10.3c-37.7 90.3-98.1 156.4-179.4 196.3-34.7 17-93.2 36.8-144 36.8"/><path d="M1964 683.7c-36.5 0-158.7 5.8-202.4 79.8-21.2 35.8-11.8 80.1-3.5 119.2l3 14.2c8 40.2 14.7 92.3-5.5 139.2-17.8 41.2-50.4 71.5-81.9 100.7-27.6 25.8-56.2 52.3-75 86.3a246 246 0 0 0-30.7 122.4c1.8 45 26.7 68 74 68 52 0 115.3-28.6 143.1-46.6 76.3-49.5 108-126.2 141.7-207.4l1.9-4.6c40.3-84.6 124.3-122 205.5-158.2l5.7-2.5c39.4-17.6 77.6-35.7 112.6-64.3 20.3-39.5-10.6-73.2-37.8-103l-8.3-9c-62.1-69.4-121.3-127.3-215.9-133.4q-13-.8-26.6-.8m-322 732c-48-.1-74.3-24.3-76.2-70.2-.6-42.7 10-85.4 31-123.4 19-34.3 47.7-61 75.5-86.8 31.3-29.1 63.7-59.2 81.3-100 20-46.4 13.3-98 5.3-138l-3-14.1c-8.3-39.5-17.8-84.3 3.8-120.8 44.3-75 167.5-80.9 204.2-80.9q13.6 0 26.8.9c95.4 6.1 154.8 64.3 217.3 134.1l8.2 9c27.8 30.3 59.3 64.7 38.2 105.5l-.3.4c-35.3 28.9-73.7 47.1-113.3 64.8l-5.7 2.5c-81 36-164.5 73.2-204.4 157l-2 4.6c-33.7 81.5-65.6 158.5-142.4 208.4-28 18.1-91.9 47-144.2 47"/><path d="M1957.4 703.4q-20.3 0-40.5 2.7c-37.6 5-73 17-102.4 34.5-41.8 34.5-46.2 72-39.9 117.5 2 14.8 4.8 29.6 7.4 44 5.7 30.6 11.5 62.2 11 94-.7 40.7-18 77.7-54.3 116.4-9 9.6-18.6 19.2-27.9 28.5-49.2 49.1-100 100-92 176.5q8.8 51.4 57.1 51.6c48.7 0 115-40 144.7-67 30.6-30.2 46.5-70 61.9-108.3 15.6-39 31.7-79.1 63.1-109.2 39-37.3 87.8-61.6 135.1-85a1125 1125 0 0 0 67.9-35.6c49.5-29 67.3-60.9 52.8-94.5-15-34.6-45.7-81-80.6-106.7-39.4-38.4-97.4-59.4-163.4-59.4M1676 1371.3q-50.3-.1-59.3-53.5c-8.2-77.7 43-128.8 92.6-178.3 9.3-9.3 19-19 27.9-28.5 35.9-38.3 53-74.8 53.6-115 .5-31.5-5.3-63-10.9-93.5a989 989 0 0 1-7.4-44c-6.4-46.4-2-84.5 40.7-119.7a274 274 0 0 1 103.4-34.8q20.3-2.8 40.8-2.8c66.6 0 125 21.3 164.7 60 35.1 25.7 66.1 72.5 81.2 107.5 15 34.7-3 67.4-53.6 97.1-22 12.9-45.4 24.5-68 35.7-47.2 23.4-96 47.6-134.6 84.6-31 29.8-47.1 69.8-62.6 108.5-15.5 38.6-31.5 78.5-62.5 109-29.8 27.3-96.8 67.7-146 67.7"/><path d="M1689.3 1277q9 23.6 35.2 23.7c19.3 0 40.1-9.7 53.2-18.7a153 153 0 0 0 56.3-78.1c4.2-12.6 3.3-25.2 2.3-38.5-1.5-20.3-3-41.5 15.5-62.4 28.1-28.5 53.1-40.6 79.6-53.4q10.5-5 21.7-10.8l38.6-19.7a2169 2169 0 0 0 69.1-36l8-4.4c29.3-15.8 62.3-33.8 79.3-62.8a71 71 0 0 0 5.4-59c-13.7-44.5-62.6-90.4-102-109a231 231 0 0 0-98.4-21.5c-31.4 0-62.5 6-90 17.6-78.2 32.7-67.3 110.5-51 180.9a1219 1219 0 0 1 20 99.6l.4 2.3c6.4 43.8 9.9 68-28.5 96.7l-13.3 10c-49.3 36.4-105.2 77.6-101.4 143.5m35.2 25.8c-18.2 0-31.1-8.7-37.2-25.2v-.3c-4-67.1 52.3-108.8 102.1-145.6l13.3-9.9c37.4-28 34.1-50.3 27.6-94.7l-.3-2.3c-4.7-32.5-11.9-64.2-20-99.4-16.5-71.2-27.5-150 52.3-183.4a237 237 0 0 1 90.8-17.8c35 0 69.4 7.5 99.3 21.7 39.8 18.8 89.3 65.3 103.1 110.3q10.4 33.7-5.5 60.8c-17.4 29.5-50.7 47.6-80.1 63.6l-8 4.4a2345 2345 0 0 1-69.3 36c-12.6 6.5-25.7 13-38.5 19.7q-11.3 6-21.8 10.8c-27.4 13.3-51 24.8-79 53-17.8 20.2-16.3 40.8-14.8 60.8a97 97 0 0 1-2.5 39.3 155 155 0 0 1-57 79.1c-13.4 9.2-34.7 19.1-54.5 19.1m657.4 187.6c54.8 29 116.1 30.6 175.4 32.2a724 724 0 0 1 96.4 7 88 88 0 0 1 64.8 40.3c18 27.9 22.4 65.8 11.8 101.5-13.2 44-31.5 73.5-59.3 95.4-21.4 16.8-45 24.7-70 33-11.6 4-23.5 8-35.2 13-46.4 19.6-72.2 44.2-78.8 75.2-6.4 5.7-5 27.5-2.6 48.2l.4 3.8c2.3 24 9.4 47 16.7 68.1q6.8 19.4 14 38.8c26 72 53 146 40 219.8h2.2c13-74.2-14-148.4-40.2-220.5l-14-38.7c-7.2-21.2-14.3-44-16.6-67.7q0-1.5-.4-3.8c-1.2-11.3-4.6-41.3 2.2-46.6l.3-.2v-.4c6.3-30.4 31.7-54.6 77.6-74.1 11.6-5 23.6-9 35-12.8 25.3-8.4 49-16.3 70.7-33.4 28.2-22.2 46.7-52 60-96.5 10.8-36.3 6.4-74.9-12-103.3a90 90 0 0 0-66.3-41.2c-31.6-5.2-64.7-6.1-96.7-7-59-1.6-120-3.3-174.4-32-28.2-14.8-59.4-42.1-48.6-88 8.8-37.3 35.6-72.7 59.2-104l1.4-1.8c72.7-96.3 147-129.4 227.1-101.4 61.4 21.4 105.2 59.4 151.6 99.6q17.6 15.3 36.3 31c67.5 55.5 154 48.5 229.6 37.6l8.8-1.3c51.9-7.2 148.5-20.7 149.9-84 .8-34.5-34.3-66.5-53.2-83.6-10.2-9.3-21-18.2-31.4-26.8-22.7-18.7-46.2-38-64.4-62.3-22-29.6-34.7-65-47-99.4-13.6-38.4-27.7-78.1-55.2-109.4-9.2-10.4-24.5-21.3-40.8-32.8-43.8-31-93.3-66.2-61.8-113.3a46 46 0 0 1 33.8-21.9c43-4.3 99.4 51.4 126.5 78.2l5 5c51.9 50.8 118.8 87.2 190.3 120.8v-2.3c-71-33.5-137.4-69.7-188.8-120l-5-5c-27.4-27-84.2-83.3-128.2-78.8a48 48 0 0 0-35.4 22.8c-32.7 48.8 20 86.2 62.3 116.2 16.2 11.5 31.5 22.3 40.5 32.6 27.2 30.9 41.3 70.4 54.9 108.6 12.2 34.5 24.9 70.2 47.2 100 18.4 24.5 42 43.9 64.7 62.6 10.4 8.6 21.2 17.5 31.4 26.8 18.6 16.9 53.2 48.4 52.4 81.9-1.3 61.6-96.8 74.9-148 82l-8.8 1.2c-75.2 11-161.1 18-227.9-37.1q-18.7-15.6-36.3-31c-46.5-40.3-90.5-78.4-152.3-100-81-28.3-156.2 5.1-229.5 102.2l-1.4 1.9c-22.6 29.8-50.6 67-59.6 104.8-8.8 37.3 8.4 68.5 49.7 90.3"/><path d="M1950.3 751.5c-41.7 0-77.8 13.7-99.2 37.4q-27.4 30.5-22.3 78.8l3.9 18.4c4.8 23.6 9.8 48 20 70.2 15 32.4 27.9 55.4 55.7 55.4q10.1 0 22.5-4c70.7-15.9 188.6-62.1 183.2-135.5-5.6-75.5-87.7-120.7-163.8-120.7m-42 262.3c-29 0-42.1-23.4-57.5-56.6-10.4-22.4-15.4-47-20.3-70.6l-3.8-18.5q-5.2-49.5 22.8-80.6c21.8-24.2 58.5-38.1 100.8-38.1 77.1 0 160.2 45.9 165.9 122.7 5.5 74.8-113.5 121.7-184.7 137.6q-12.6 4.2-23.1 4.1M459.2 862c15.1 31.7 50.6 66 89.2 70.1l6 .4q19 0 31.4-14c16-18 19.1-48.3 16.8-68.8-3.3-30.1-25.4-86.5-63.7-86.5q-3.3 0-6.6.6c-32 14-80.2 53-73.1 98.1m95.1 72.6-6.1-.3c-39.5-4.3-75.7-39.2-91-71.6l-.1-.2c-7.4-46.5 41.8-86.5 74.6-100.8q3.9-.6 7.2-.6c39.6 0 62.4 57.5 65.9 88.4 2.3 21-.8 52-17.4 70.4a43 43 0 0 1-33 14.7"/><path d="M1954.8 776.6c-32.3 0-60.7 11.3-78 30.8-15.5 17.6-22 41.9-18.5 70 5.4 24.7 14.7 55.8 38.6 77.3a60 60 0 0 0 42 14.8c12.9 0 27.4-2.8 45.6-8.6 34-11 74.4-36.2 87.8-68.3q10.7-25.3-2.2-51.3c-22.2-44.7-73.9-64.7-115.3-64.7m-16 195q-26.2 0-43.3-15.3c-24.4-22-33.8-53.5-39.3-78.5-3.5-28.9 3-53.7 19-71.8 17.7-20 46.7-31.5 79.6-31.5 42 0 94.6 20.3 117.2 65.8a61 61 0 0 1 2.3 53.2c-13.7 32.6-54.7 58.4-89.1 69.4a152 152 0 0 1-46.3 8.7"/><path d="M1959 818c-20 0-37.6 7.2-47.4 19.4a43 43 0 0 0-7.4 37.2c3 27.4 22.7 43.7 52.6 43.7 25.2 0 50-12.3 60.2-29.8 7.3-12.6 6.9-27-1.3-41.6-10-17.8-31.8-29-56.8-29m-2.2 102.4c-24 0-51-12-54.7-45.5a45 45 0 0 1 7.8-38.9c10.2-12.6 28.5-20.2 49-20.2 25.8 0 48.2 11.5 58.6 30 8.6 15.4 9.1 30.5 1.4 43.8-10.6 18.1-36.1 30.8-62.1 30.8m601.9 158.9c8.6 21.7 35 37 56.2 49.5q7.4 4.2 13.8 8.2c11.6 7.3 23.6 14.5 35 21.6 15.2 9.1 30.8 18.6 46 28.3 23.3 15 45.2 33.5 66.4 51.3 26.5 22.4 53.8 45.4 84.4 62a215 215 0 0 0 103.2 25.2q34.3 0 68.5-9.6c25-7 54.9-18.6 65-47.1 6.2-31-20.6-58.6-42.2-80.9l-7.3-7.6c-40.9-43.4-66.6-86.1-97.1-145.3-32.9-63.7-72.2-98.4-127.4-112.5a191 191 0 0 0-161.7 28.7c-32.8 22.7-108.4 80.6-102.8 128.2m405 248.2a217 217 0 0 1-104.2-25.5c-30.8-16.6-58.2-39.7-84.8-62.1a658 658 0 0 0-66.3-51.2c-15-9.7-30.6-19.1-45.7-28.3q-17.6-10.6-35.1-21.6l-13.8-8.2c-21.5-12.5-48.3-28.2-57-50.6l-.2-.3c-5.9-48.8 70.6-107.4 103.7-130.3a193 193 0 0 1 163.4-29.1c56 14.3 95.6 49.3 128.8 113.6 30.4 59 56 101.6 96.7 144.8l7.4 7.6c21.9 22.7 49.2 50.8 42.7 83-10.5 29.5-41 41.5-66.5 48.6a258 258 0 0 1-69.1 9.6m236.4-133.6-7.7-5.7c-10.8-8.6-22.2-17-33.2-25.2q-14.1-10.3-28.4-21.3a323 323 0 0 1-54-50.7 161 161 0 0 1-22.6-42.2q-5-12.5-11.4-25.2l-2.2-12c-6-31.3-14.1-74.2 20.8-87.7 29.6-.3 56.2 5 89 17.8q10.7 4.1 22.7 8.4 13.6 4.8 27 10v-2.3q-13-5-26.3-9.7-12-4.3-22.6-8.4a227 227 0 0 0-90-18l-.4.1c-36.8 14-28.4 58.1-22.3 90.3l2.1 12 .2.3q6.5 12.8 11.4 25.2c6 14.4 12 29.2 23 42.7a325 325 0 0 0 54.3 51q14.2 11 28.5 21.5 16.7 12.2 33.1 25l9 6.8z"/><path d="M2788.3 952.3c-78.1 0-163 45.4-164 118.9 6.6 39.6 50 68.2 84.7 91.3q10.6 7 19.6 13.3c18 12.7 35.6 26.6 52.7 40a940 940 0 0 0 77.3 56.6c31.1 19.6 65.6 30 99.6 30q20.2 0 39.6-4.8c20.5-5.1 45-14.2 53.8-39.5 7-20.7-12.4-44.6-25.2-60.4l-3.3-4.1a781 781 0 0 1-87.7-134.3c-20.3-39.6-45.5-78.8-91.7-97.4a151 151 0 0 0-55.4-9.6m170 352.3c-34.5 0-69.4-10.5-100.8-30.4-27-17-52.7-37.2-77.6-56.7-17-13.4-34.7-27.3-52.5-40l-19.6-13.2c-35-23.3-78.8-52.3-85.6-93 .5-45.7 30.4-74.2 55.3-90 31-19.8 71.4-31.1 110.8-31.1 21 0 40.4 3.3 56.2 9.7 46.9 18.9 72.3 58.4 92.8 98.4 24 46.9 51.8 89.4 87.4 134l3.3 4c13.2 16.2 33.1 40.7 25.6 62.5-9 26.3-34.3 35.7-55.2 40.9a166 166 0 0 1-40.1 4.9m241.7-152.3c-14-9-28.5-18.2-42.1-28.2-26.1-19-57.7-45.4-71-82.4-5.4-20.3-3.1-40.3 6-52.1q10.4-13.4 30.5-13.3a186 186 0 0 1 76.6 19.4v-2.4q-6.6-3.1-12.8-5.5a188 188 0 0 0-63.8-13.6c-14-.1-25 4.6-32.2 14-9.7 12.6-12 32.8-6.3 54.1 13.4 37.7 45.4 64.5 71.7 83.6a885 885 0 0 0 43.4 29z"/><path d="M2681.7 1080.8c7.4 25.8 30.4 51.5 70.3 78.4a929 929 0 0 1 45 33c14.4 11 29.4 22.4 44.8 32.8 27.8 18.7 64.3 40.3 100.1 40.3l.1 1v-1c21.1 0 35.6-6.5 42-18.7 7.5-14.8 2.8-36.7-12.7-58.7-14.9-21.1-27-45.1-38.8-68.4-23.8-47.2-48.4-96-97.1-122q-22-8-46-8c-49.7 0-104.6 28.6-107.7 91.3m260.3 186.6c-36.2 0-71.6-20.5-101.4-40.6-15.4-10.4-30.4-21.9-45-33a946 946 0 0 0-44.8-32.8c-40.4-27.3-63.7-53.4-71.2-79.8v-.4c3-64.2 59-93.4 109.8-93.4a137 137 0 0 1 46.9 8.1c49.4 26.4 74.2 75.6 98.2 123a543 543 0 0 0 38.6 68.1c16 22.7 20.7 45.5 12.7 61-6.7 13-21.8 19.8-43.8 19.8"/><path d="M2793.7 1029c-22.6 0-42.6 7.3-53.4 19.4a40 40 0 0 0-9.4 32.4c8.6 41.6 55.8 69.5 90.2 90l7 4.1c24.4 14.6 45.6 21.9 66.5 23 17.4-10.1 13.5-23.8 8.6-41q-1-3.3-1.8-6.7c-10.4-38.9-29.1-93-71.7-113.9a84 84 0 0 0-36-7.3m101.3 171h-.3c-21.4-1.1-42.9-8.5-67.7-23.4l-7-4.1c-34.8-20.6-82.5-48.8-91.3-91.5a42 42 0 0 1 9.9-34.1c11.2-12.6 31.8-20.2 55-20.2 13.8 0 27 2.7 36.9 7.6 43.4 21.3 62.3 76 72.8 115.2l1.9 6.7c5 17.5 9.3 32.6-10 43.6zm-1402.5 429.9c41.8 48 118.7 55.3 161 55.3 29.8 0 60.7-3.6 87.2-10 53.9-13.1 81.6-51.8 111-92.7 22-30.6 44.8-62.4 79.6-82.8 41-21.4 87-28.7 126.8-33.8q16-1.9 34-3.2c35.8-3 76.5-6.3 105.4-23.3 33.7-19.7 58.9-51 83.2-81.3l10.7-13.3a3527 3527 0 0 0 104.2-133.2c4.8-7.7 11.3-16.4 18-25.6 19.3-25.9 41.2-55.2 39.3-82.3-18.5-39.6-75.4-51.5-123-57.5q-26.8-3.4-54.2-3.4c-78.6 0-152.8 21-208.8 59.1-56.9 38.7-82.3 106.3-107 171.6a956 956 0 0 1-27 66.6c-23 49.6-47.6 85.3-77.4 112.6-32.3 29.6-74.5 45.7-115.3 61.3l-7.8 3c-32.3 12.4-65.7 23.9-97.9 35q-20.7 7-41.3 14.2l-14.2 4.7c-32.5 10.4-86.8 27.8-86.5 59m161 60.6c-43.4 0-122.6-7.5-165.7-57.8l-.6-.7v-1c-1.6-35.8 53.6-53.5 90.2-65.3l14-4.6 41.4-14.3c32.1-11 65.4-22.4 97.7-34.8l7.8-3c40.3-15.4 82-31.3 113.6-60.2 29.2-26.9 53.5-62 76.2-111a944 944 0 0 0 26.8-66.2c25-66.1 50.7-134.5 109-174.1 57-38.7 132.1-60 211.8-60q27.6-.1 54.9 3.4c49.1 6.1 108 18.7 127.4 61l.2.4v.5c2.3 29.3-20.3 59.6-40.2 86.4a392 392 0 0 0-18 25.4 3636 3636 0 0 1-115.2 147c-24.6 30.5-50 62.2-84.6 82.5-30 17.5-71.3 21-107.7 24q-18 1.3-33.7 3.2c-39.4 5-84.8 12.1-125 33.2-33.6 19.7-56 51-77.8 81.2-28.6 39.9-58.2 81.2-114 94.7a386 386 0 0 1-88.5 10.1"/><path d="M2256.4 1062.5c-58.7 0-127.2 19.6-174.6 49.9-39 31.4-65 68.1-83.9 119-6.4 17.2-12 35.1-17.5 52.5l-8.8 27.4-4.2 12.3c-8.6 24.9-19.3 55.8-15.6 78.8 9.9 23 19.4 26.6 44.2 31.2 26.2 0 57.3-.6 88.8-4.2a290 290 0 0 0 145.3-55.8c42.5-31.4 79.1-79.9 110.1-122.8l.2-.3c28-38.8 80.2-111 31.3-152.2-27.9-23.4-67.7-35.8-115.3-35.8m-260.6 373.3c-25.2-4.7-35.6-8.7-46-32.8-3.8-23.8 7-55 15.7-80l4.2-12.4q4.6-13.7 8.7-27.4c5.5-17.3 11.1-35.3 17.6-52.6a267 267 0 0 1 84.7-120c47.7-30.6 116.7-50.3 175.8-50.3 48 0 88.4 12.6 116.7 36.4 50.4 42.4-2.6 115.7-31 155.1l-.2.3c-31 43-67.8 91.6-110.5 123.2a292 292 0 0 1-146.3 56.2 800 800 0 0 1-89.2 4.3z"/><path d="M2224.8 1092.3a240 240 0 0 0-107.6 26.5c-82.3 42.3-111.5 142-111.3 221 9.4 42 44.6 50.9 72.4 50.9 51.3 0 112.3-28.3 139.3-48.4 102.7-82.5 142.6-151.9 118.5-206-33.3-36.3-78.9-44-111.3-44m-146.5 300.5c-41 0-66.8-18.2-74.5-52.7-.2-80 29.3-180.5 112.5-223.2a242 242 0 0 1 108.5-26.7c32.9 0 79.2 7.8 113 44.8l.2.3c24.6 55.1-15.4 125.4-119.1 208.8-27.2 20.2-88.8 48.7-140.6 48.7M857 1417.5c-79.5-66.9-175-68.6-259.2-70.1-41-.7-76.4-4.9-92.7-48.2q-5.2-14.3-9.8-28.4a346 346 0 0 0-22.7-57.3c-41.5-76.8-112.5-116.2-195-108-89.2 8.8-159 52-196.6 121.8-8 15-14 32.8-19.7 50-12.4 37.8-25.2 76.4-61.3 90v2.4c37.5-13.6 50.6-53.1 63.4-91.7 5.6-17.1 11.5-35 19.5-49.7 37.3-69.1 106.4-112 194.8-120.7 81.7-8 152 30.9 193 107a329 329 0 0 1 22.6 56.9q4.4 14.1 9.8 28.4c16.8 44.7 52.8 49 94.7 49.7 83.9 1.4 179 3.1 257.8 69.5 17.9 15 65.9 62.1 52.8 80.8-2.7 4.8-4.5 9.4-6.3 13.9-3.3 8.2-6.3 16-14.5 23.4-18.2 16.2-40.7 27.7-60.6 37.8-93 47.4-164 95-230 154.5a221 221 0 0 0-62.7 109.8l-1.5 7.6a111 111 0 0 1-10.2 33.5 40 40 0 0 1-14 15 36 36 0 0 1-11 3.1c-5.2 1-10.2 2-12.6 4.2-24.7 3.4-50.2 4.2-75 5-19.5.7-39.6 1.4-59.3 3.3q-23.7 2.3-47 5c-30.6 3.6-62.3 7.2-93.6 8.7-83.3 4-153.7-9.5-210.1-40v2.5c50 26.8 111 40.3 182 40.3q13.9 0 28.2-.7c31.4-1.5 63.1-5.1 93.8-8.6q23.2-2.7 46.9-5a842 842 0 0 1 59.2-3.3c24.9-.8 50.6-1.6 75.6-5l.3-.1.3-.3c1.8-2 6.9-3 11.8-3.8 4.4-.9 9-1.7 11.7-3.4q9-5.7 14.7-15.9a114 114 0 0 0 10.4-34l1.5-7.7c8-38.6 30.7-78.2 62-108.7 66-59.2 136.7-106.8 229.6-154 20-10.3 42.7-21.8 61-38.2 8.6-7.7 11.7-15.7 15.1-24.2q2.4-6.7 6.1-13.5c16.9-24.2-52.5-83-53.2-83.6"/><path d="M2217.2 1117.3c-29.6 0-64.6 8.2-89.2 20.9-59 30.4-93.7 101.3-84.4 172.3q14.4 40.7 61 40.8c36.3 0 78.2-19.1 103.1-35.5 43.2-28.3 121.5-105.6 87.7-163.2-17.1-29.2-52-35.3-78.2-35.3m-112.5 236.1q-48.3 0-63.1-42.4c-9.6-72.1 25.6-143.9 85.4-174.7a211 211 0 0 1 90.2-21.2c26.8 0 62.4 6.3 80 36.4 34.6 59-44.6 137.4-88.3 166.2-25.1 16.4-67.5 35.7-104.2 35.7m-1806.8-215c-55.4 0-111.4 22.3-146.2 58.3a132 132 0 0 0-38.6 97.2c8.4 44.2 42.7 65.8 104.9 65.8 28.2 0 57.7-4.4 81.4-7.9l6.2-1c63.3-9.2 135.7-28 133-90.4-3.7-90-75.1-122-140.7-122m-80 223.5c-63.3 0-98.3-22.2-106.9-67.7a134 134 0 0 1 39.1-99c35.2-36.4 91.8-59 147.8-59 66.5 0 139 32.6 142.9 124.1 3 72.4-93.6 86.6-134.9 92.7l-6.2 1c-23.7 3.5-53.3 7.9-81.7 7.9"/><path d="M2194.4 1152.7c-26.8 0-57.3 15-79.6 39-20.2 21.8-30.3 47.2-28.5 71.5 2.7 31 26 37.5 45 37.5 15 0 32.9-4.2 47.8-11.3 33.3-15.8 72.6-50.7 73.6-97-14.9-32.8-39.9-39.7-58.3-39.7m-63.1 150.1c-28.2 0-45-14-47.1-39.4-2-24.9 8.4-50.9 29-73.2 22.7-24.5 53.8-39.7 81.2-39.7 19 0 45 7.2 60.4 41.2v.4c-.9 47.5-40.8 83.1-74.8 99.2a120 120 0 0 1-48.7 11.5M294 1167c-62.7 0-130.5 40.3-131.7 100.5 3.8 35.3 37.3 56.5 89.7 56.5 52.7 0 117.7-23.3 135.1-62.4q13.7-31-16-64.4c-17.3-19.5-44.7-30.3-77.1-30.3m-42 159.2c-53.6 0-88-22-91.8-58.6 1.2-61.6 70.1-102.8 133.8-102.8 33 0 61 11 78.8 31 20 22.6 25.7 45.6 16.3 66.7-17.8 39.9-83.7 63.7-137.1 63.7M2397.6 1458c51.6 44.4 127.1 43.7 193.8 43 23.6-.1 45.9-.3 66.7 1.2 55.1 4.2 88.2 25.8 101.1 66 10.7 33.2 6.3 64.3 1.7 97.3l-3.2 24c-5 4.7-8.2 17.8-12 35.5-1.8 7.8-3.4 15.2-4.9 18.8l-1.8 4.2c-6.6 15.8-13.5 32.3-25.5 44.9-24.5 25.6-59 36.9-98.4 48-31.3 8.8-84.3 31.7-88.2 85.7-2.9 41.2 10 77.5 23.5 116l1 2.4c30.1 85.5 44.3 158.8 42.7 221.7h5.4c1.6-63.6-12.7-137.4-43.1-223.5l-1-2.5c-13.3-37.8-26-73.6-23-113.7 3.5-50.7 54.2-72.5 84.1-81 31-8.7 73.4-20.7 100.8-49.4 12.8-13.3 19.8-30.2 26.7-46.5l1.7-4.2c1.8-4 3.3-11.3 5.2-19.8 2.6-12 6.6-30.1 10.9-33l1-.7.1-1.3 3.3-24.8c4.8-33.7 9.2-65.4-1.9-99.8-13.6-42.5-48.3-65.2-105.8-69.6-21-1.6-43.4-1.4-67.2-1.2-68.8.7-140 1.3-190.2-41.7a66 66 0 0 1-24.2-49.4c-1-44.9 38.8-99.3 76.5-135.2 66.5-63.5 148-71.3 229.6-21.8 32.5 19.6 57.6 45.6 84.2 73l17.9 18.3c35 35.1 71.2 50.2 125 52 59.5 2 119.5-4.6 175.5-12.1l13.7-1.8c34-4.4 68.8-8.9 100.7-20.7v-5.8c-31.9 12.2-67 16.8-101.4 21.2l-13.7 1.8c-55.8 7.4-115.6 14-174.6 12-53-1.8-87.1-15.9-121.4-50.4L2771 1317c-25.6-26.5-52.2-54-85.2-74-83.8-50.7-167.7-42.7-236.1 22.6-38.6 36.7-79.3 92.6-78 139.2q.7 31.7 26 53.4"/><path d="M3200 1657a92 92 0 0 0-12.5 5.8 382 382 0 0 0-53.3 39l-10.5 9c-30.5 26.1-62 53.1-98.1 72.2-35.9 19-76.8 29.2-115.7 38.2-27.2 6.2-68.3 15.7-100.3 7.3-38.5-10-32.5-52.3-27.6-86.2l1.2-9q2.5-18.2 5.5-36.2c6-38 12.4-77.4 7.4-116.5-3.7-29.6-11.2-66.3-36-87.9-26.9-23.4-70.7-21.1-105.9-19.3l-16 .8-13.3.5c-53.2 2.2-152.3 6.4-194.6-33.6a63 63 0 0 1-19.8-46.2c-.8-41.7 29.3-80.2 47.3-99.4 13.1-14 58.3-58.7 98.9-58.7h2.7l9.6.5c33.6 1.6 60.1 2.8 93.2 19.2 42.9 21.3 74.4 58.7 100.6 92.1l4.7 6a250 250 0 0 0 31.8 36.3c10 8.9 20.2 11.8 31 15q6.5 1.8 14 4.5h.2c42.2 4 84.8-.2 126.1-4.3q20-2 40.2-3.7l54.7-4.2c44.1-3.3 89.5-6.7 134.5-11.2v-2.2c-45 4.5-90.5 8-134.7 11.2l-54.6 4.2q-20.4 1.6-40.3 3.7c-41.1 4.1-83.7 8.3-125.6 4.4q-7.2-2.6-14-4.5c-10.5-3-20.4-6-30-14.5a259 259 0 0 1-31.6-36l-4.7-6c-26.4-33.6-58-71.3-101.4-92.7-33.4-16.6-60.2-17.9-94-19.4l-9.6-.5c-42.1-2.1-89.7 45-103.2 59.4-18.3 19.4-48.7 58.4-48 100.9a65 65 0 0 0 20.5 47.7c43 40.6 142.6 36.4 196.2 34.2l13.3-.6 16-.7c34.8-1.9 78.2-4.1 104.4 18.7 24.3 21.1 31.6 57.4 35.3 86.6 5 38.8-1.4 78-7.4 115.9q-3.1 18-5.5 36.2l-1.3 9c-4.7 33-11.1 78 29.2 88.6a116 116 0 0 0 29.2 3.4c25.6 0 52.5-6.2 72.2-10.7 39-9 80-19.3 116.2-38.4 36.3-19.2 67.9-46.3 98.5-72.4l10.5-9a377 377 0 0 1 53-38.9q5.2-3 11.4-5.4zM907.2 1239.7c-19.3 0-52.6 3-58.2 22.5v.4l-.4.2a11 11 0 0 0-4 10.3c2.3 21.6 50.8 56.3 61.9 62 14.5 7.3 31 11.5 45 11.5 16 0 37-5.2 45.7-30a50 50 0 0 0-2.3-40.5 63 63 0 0 0-38.9-30.7c-9.5-2.8-29.4-5.7-48.8-5.7m44.4 109a104 104 0 0 1-46-11.8c-8.5-4.2-60.5-39.7-63.2-63.6q-.9-7.3 4.6-12c6.3-20.6 40.4-23.7 60.2-23.7a201 201 0 0 1 49.4 5.8 65 65 0 0 1 40.2 31.8 52 52 0 0 1 2.4 42c-9.1 26-31 31.5-47.6 31.5"/><path d="M2453.7 1395.3c17.7 36.4 58.8 54.9 122.2 54.9 24.7 0 49-2.8 65.2-4.9 34.4-4.4 62-11 85.5-29.5 11.5-23.2 8.8-46-8.8-74-30-47.6-81.5-78.3-131.3-78.3q-16.1 0-31.6 4.1c-61.6 16.5-104.2 70.2-101.2 127.7m122.2 57c-64.4 0-106.2-19-124.2-56.2l-.1-.4c-3.2-58.7 40-113.4 102.8-130.2q15.8-4 32.1-4.1c50.5 0 102.7 31 133 79.2 18.2 28.8 21 52.3 8.9 76.4l-.3.4c-23.8 18.8-51.9 25.6-86.7 30a519 519 0 0 1-65.5 5"/><path d="M2504.5 1379.9c19.6 31 55.2 37.5 81.6 37.5q8.6 0 17.6-.9c24-2.3 54.2-11.2 67.2-29.5a37 37 0 0 0 5.5-30.9c-9.8-41.7-52.3-56.6-85.7-56.6-31 0-59.7 11.7-75 30.5a58 58 0 0 0-11.2 49.9m81.6 39.7c-38.7 0-67.6-13.4-83.5-38.7l-.2-.4c-4-19.6 0-37.6 11.7-51.9 15.6-19.3 45-31.2 76.6-31.2 34.2 0 77.7 15.3 87.8 58.3q4.3 18.4-5.8 32.6c-13.5 18.8-44.3 28-68.7 30.4q-9.2.9-18 .9m-1727.9 56.9-2.6-1.5a78 78 0 0 1-9.2-17 89 89 0 0 0-9.9-18 160 160 0 0 0-46.9-36.5c-65.8-34.8-171.2-38.9-233.6 14.6-27.5 23.5-41.8 55.8-55.6 87.2-13.6 30.7-26.4 59.8-50.6 80.7-32.2 27.7-80.8 6.2-116.4-9.5l-5.5-2.5c-22.6-10-45.8-19.6-68.1-29-22.7-9.5-46-19.3-69-29.3-31-13.8-61-30.2-90-46-16.5-9.1-33.6-18.5-50.8-27.3A229 229 0 0 0 0 1422.7v11a225 225 0 0 1 45 18.3c17 8.7 34.1 18 50.6 27a1173 1173 0 0 0 90.9 46.5c22.9 10 46.3 20 69 29.4 22.4 9.4 45.4 19 68 29l5.5 2.4c38.1 16.9 90.3 40 127.6 7.8 26.1-22.4 40-54 53.5-84.5 13.3-30.2 27.1-61.5 52.7-83.3 58.2-49.8 160.4-45.7 221.7-13.3a149 149 0 0 1 43.8 34c2.2 2.5 5.4 9.4 8.2 15.5 4.4 9.4 7.5 16 10.9 19.6-.3 36.8-25.4 53.4-54.4 72.5q-6.7 4.3-13.4 8.9a4474 4474 0 0 0-133.2 74.3 644 644 0 0 1-51.8 25.8c-28.9 13.3-58.8 27-83.2 46.5-20.4 16.2-33.8 38.1-46.8 59.4-8.3 13.7-17 27.9-27.5 40.1-23.8 28.1-58 47.7-107.3 61.8-97.1 27.5-174.2 31.7-242.5 13-25.8-7-58.8-20-87.3-43.4v13.7a251 251 0 0 0 84.5 40.1 344 344 0 0 0 91.2 11.8c46.9 0 98.4-8.3 157-24.9 51.5-14.6 87.3-35.3 112.6-65.1 11-12.9 19.9-27.5 28.5-41.5 13-21.4 25.4-41.6 44.3-56.6 23.4-18.6 52.7-32.1 81-45.2 17.7-8.1 36-16.6 52.6-26.2a4707 4707 0 0 1 133.2-74.3l.5-.3 13.5-9c31-20.3 60.1-39.5 59.2-84z"/><path d="M188.6 1449.6c23 46 85.7 70.6 130.9 85q21 6.8 40.5 6.8c43.1 0 75.3-25.4 88.4-69.8 7.2-24.5 10.8-50-11-70.2-21-7.5-39.9-8.6-57.2-8.6-6.3 0-13 .2-19.2.4h-.8c-91 2.7-146.6 15-165.2 36.7q-7.5 8.9-6.4 19.7m171.5 94a135 135 0 0 1-41.3-6.9c-45.6-14.6-109-39.5-132.3-86.3v-.3q-1.4-12 6.9-21.6c19-22.2 75.1-34.8 166.7-37.5h.9q9.5-.3 19.2-.3c17.6 0 36.8 1 58.1 8.7l.4.2c22.9 21.2 19.2 47.4 11.8 72.6-13.4 45.4-46.3 71.4-90.4 71.4m182.7 48.1q11.2 26.6 44.5 26.7c36 0 83.3-23.6 108.7-36.3l10.8-5.3c34.3-16.8 91.5-45 99.3-81.9q4.4-20.9-13.2-42c-19.8-23.7-52.2-36.7-91.3-36.7a176 176 0 0 0-79.6 19c-52.7 27.7-86.7 95-79.2 156.5m44.5 28.8q-34.8 0-46.5-28.1v-.3c-7.8-62.4 26.7-130.7 80.2-158.9a178 178 0 0 1 80.6-19.2c39.7 0 72.7 13.3 93 37.5q18.2 22 13.6 43.9c-8 38-65.8 66.3-100.4 83.3L697 1584c-25.6 12.8-73.2 36.5-109.7 36.5M3200 1601l-2.5 1.6q-6.5 4.4-11 7a472 472 0 0 0-64.8 44.3 606 606 0 0 0-43.2 40.6c-23.4 23.5-47.6 47.8-78 64.3-25.1 13.7-74 35.4-118.7 28.4-53.2-8.5-58.3-52.7-55.8-99.3 2.6-50.8 2-99.6 1.3-151.2l-.1-13.2c-.6-45.8 21.4-70.7 73.3-83 117.6-19.1 211.8-23 299.5-11.7v-2.2c-87.8-11.2-182.2-7.4-299.9 11.7-53.2 12.7-75.6 38.2-75 85.3l.1 13.1c.7 51.6 1.3 100.4-1.4 151-2.5 47.7 2.8 93 57.7 101.6q9 1.5 18.4 1.4c39.8 0 79.7-18.1 101.6-30 30.7-16.7 55-41 78.5-64.6 13.7-13.8 27.8-28 43-40.5a475 475 0 0 1 64.5-44 239 239 0 0 0 12.5-8z"/><path d="M3142.3 1575.5q-6.6 4.8-12.2 9.3a1065 1065 0 0 0-71.6 64.7c-11.6 11-23.5 22.5-35.4 33.5-27.5 25.1-60 52-97.7 52q-7.2 0-14.6-1.4c-30.8-8.5-37.3-40.4-39.5-70.6 1.3-17.6.5-35.5-.3-52.9-1.3-28.2-2.7-57.3 5.3-84.6 12.1-41.6 48.6-55.8 86.2-64.9a332 332 0 0 1 77.4-8.7q23.9 0 48.8 3c25.8 3 104.2 12.3 104.7 54 .4 27.8-28.2 49.3-51.1 66.6m57.7-84.7c-17.1-35.6-83-43.4-110-46.7q-25.7-3-50.1-3c-28 0-55 3-80 9-38.7 9.5-80.2 25.4-94 72.4-8.4 29-7 59-5.6 88.1.8 17.2 1.6 35 .3 52v.8c2.3 32 9.8 70.3 47.6 80.6l.4.1q8.4 1.5 16.8 1.6c41.5 0 76-28.3 104.9-54.8 12-11 24-22.5 35.6-33.6 22.6-21.7 46-44.2 70.9-64q5.5-4.5 11.9-9.2c19.2-14.5 42-31.7 51.3-54.2zM408.4 1683.4c-15.5-42.3-74.5-70.4-117.5-91l-13.8-6.6a901 901 0 0 0-140-52.5c-47.8-14.3-91.5-33-137.1-53v2.3c45.4 20 88.9 38.5 136.5 52.7a890 890 0 0 1 139.6 52.4l13.8 6.6c40.4 19.3 101.4 48.5 116.5 90l.2.3c19 23.3 5.7 71-10 97.4-46.1 78-164.5 103.8-255 94.6-51.5-5.2-93.6-23.5-125-54.4q-9-8.7-16.6-18.5v3.4q6.9 8.7 15 16.7c31.9 31.2 74.4 49.7 126.4 55q17.3 1.6 35.8 1.7c84.4 0 180.6-28.6 221.3-97.4 14.8-25 30.6-74.2 9.9-99.7m295.3-212.9a72 72 0 0 0-51.1 23.2 31 31 0 0 0-8 25.6c3.4 11.2 14.4 13.5 23.1 13.5a80 80 0 0 0 53.5-24c6-6.7 8.7-13.8 7.9-20.4-2-15.5-16.7-17.9-25.4-17.9m-36 64.5c-13.3 0-22.3-5.4-25.2-15.2a33 33 0 0 1 8.4-27.4 75 75 0 0 1 52.8-24c16 0 26 7.2 27.5 19.7q1.3 11.1-8.4 22.1a81 81 0 0 1-55 24.8"/><path d="M3028.3 1476.5c-16.4 0-33 1.6-44.2 4.4-56.7 14-82.2 53-77.7 119.3 4 30.7 15.2 67.3 45.2 67.3q9.7 0 21.1-5c51.4-22 112.6-77.1 142.5-128q5.4-19.6-4.7-32.8c-17.2-22.8-63.2-25.2-82.2-25.2m-76.7 193.1c-25 0-41.3-23.9-47.3-69.2-4.6-67.5 21.4-107.3 79.3-121.6 11.4-2.8 28.1-4.5 44.7-4.5 19.3 0 66 2.6 84 26.1q10.5 14.2 5 34.8l-.2.2c-30 51.3-91.8 106.8-143.5 129a56 56 0 0 1-22 5.2M2075 1512.2c-22.7 0-47.2 4.7-70.8 13.7-56.7 21.4-84.2 63.6-113.3 108.3a799 799 0 0 1-30.2 44.2c-39.3 52.3-115.3 55.3-182.3 58q-22 .8-41.2 2.2c-35.2 3-152.1 15.8-178.6 58.7a36 36 0 0 0-2.2 33.8c31.6 65.3 115.8 93.1 185.5 110.1 33.5 8.1 77.9 17.5 124 17.5h4.2a43 43 0 0 1 16.3-7.7c6.3-2 12.8-4 17.1-7.8 15.9-13.6 26.5-31.6 37.8-52.1l10.4-19.5c13.7-25.8 27.9-52.6 48.4-74.4 24.8-21.7 55.3-34 84.9-45.9l14.8-6c48.1-19.9 131.5-66.7 150-156.4 8.1-40.3-3.1-63-35.4-71.7q-18.8-5-39.4-5m-309 448.6c-46.4 0-91-9.3-124.6-17.5-70.2-17.1-155-45.2-187-111.4a38 38 0 0 1 2.3-35.7c27.1-43.8 144.8-56.7 180.3-59.7q19.3-1.4 41.3-2.2c66.5-2.7 142-5.7 180.7-57.2 11-14.6 20.7-29.6 30.1-44 29.3-45 57-87.6 114.3-109.2 23.9-9 48.6-13.9 71.6-13.9q20.9 0 40 5.1c33.6 9 45.3 32.6 36.8 74.2-18.6 90.8-102.7 138-151.2 158l-14.8 6c-29.4 11.9-59.8 24.1-84.2 45.4-20.3 21.6-34.4 48.2-48 73.9l-10.5 19.5c-11 20-22 39-38.2 52.7-4.7 4-11.4 6.2-17.8 8.3-6.4 2-12.4 4-15.8 7.4l-.3.3z"/><path d="M1925.5 2006.6c21.2 15.7 44 29.8 68.4 44.8 57.5 35.5 117 72.3 150.6 129.7 3.6 31.8-38.2 50-68.8 63.3q-9.6 4.2-17.3 7.9l-29.7 14.4h5l25.6-12.5q7.7-3.6 17.3-7.8c31.3-13.6 74-32.2 70-65.7l-.1-.4c-33.8-58-93.7-95-151.5-130.7-24.2-15-47.1-29.1-68.3-44.7q-34.8-25.8-34.8-65.6c0-46.6 36.4-94.2 72.4-120.7 21.6-15.9 45.1-29.6 67.8-42.9 44.3-25.8 90-52.5 122.7-96.2 11.2-15 21.3-31 31-46.5 10.3-16 20.8-32.7 32.5-48.2 26.5-34.9 50.7-35.7 87.4-37l16-.6c24.7-1.2 51.8 5.6 78.1 12.1 16.3 4 33 8.3 48.6 10.3 19.9 2.7 40.6 3.7 60.7 4.6 31.2 1.6 63.6 3.1 93.9 11 30.3 7.7 58.4 30 53 62.2-5.7 33.5-31.1 59.5-77.7 79.5-11 4.8-22.5 9.1-34.7 13.7-53.2 20-108.2 40.5-126.2 99.1-17 28.8-3.7 90.5.7 110.7 5.6 40.5 18.8 80.4 31.6 119l6 18.3c19 57 42 126.2 8.6 179h2.6c32.8-53.4 9.8-122.7-9-179.7l-6.2-18.3c-12.7-38.5-25.9-78.3-31.5-118.7-4.4-20-17.6-81.1-.8-109.4 17.7-57.8 72.2-78.2 125-98a781 781 0 0 0 34.8-13.7c47.3-20.4 73-47 78.9-81.2 5.6-33.5-23.4-56.7-54.6-64.7-30.5-7.8-63-9.4-94.3-11-20-.9-40.7-1.9-60.6-4.5-15.4-2-31.3-6-48.2-10.3-26.5-6.5-53.9-13.4-78.9-12.1l-15.8.6c-37.3 1.3-62 2.1-89 37.8a675 675 0 0 0-32.6 48.4c-9.8 15.4-19.9 31.4-31 46.3-32.5 43.4-78 70-122 95.7-22.8 13.3-46.4 27-68.1 43-36.4 26.8-73.2 75-73.3 122.4q0 41 35.8 67.3M256.4 1948h2.5c42.2-1.4 85.8-2.7 127.1 5.5 31.5 6.3 60.4 20.7 88.3 34.6 13.7 6.8 27.9 13.9 42.3 20 44 18.5 91.6 23.5 133.7 14 25.4-5.6 42-17.2 48-33.3 5.7-15.2 1.1-33.4-13.2-52.7-7.6-10.2-16.6-19.8-25.3-29.2-16.2-17.2-33-35.1-41.4-57.6-15.5-50.1 11.1-92.5 32.5-120 60.5-77.8 154.3-118.8 219.5-142.8q8-3 17.3-6.9c30.6-12.4 68.6-27.9 96.6-16 29.7 9.3 54.4 30.8 78.3 51.6 10.4 9 21.2 18.4 32 26.4q16.4 12 32.9 23.5a801 801 0 0 1 69.8 53c40.3 22.3 63.8 65.6 82.6 100.4 15.6 26.4 3 74.4-9.2 100.3-16.1 34.2-47.7 57-78.2 79.2l-3.5 2.5c-54 39.3-88.2 76.8-110.5 121.6l-8.9 18c-21.7 44.2-44.1 89.8-79.1 126.6h3c34.4-36.8 56.6-82 78-125.6l9-18c22.1-44.5 56-81.8 109.8-120.9l3.5-2.5c30.7-22.2 62.5-45.3 78.9-80 10.7-22.6 26.4-73.1 9-102.2-18.9-35-42.5-78.7-83.2-101.2a806 806 0 0 0-69.8-53c-10.8-7.6-22-15.5-32.7-23.4-10.9-8-21.6-17.3-32-26.4-24-20.9-49-42.5-79-52-28.7-12-67.2 3.6-98 16.2l-17.3 6.8c-65.5 24.1-159.6 65.2-220.5 143.5-21.6 27.9-48.6 70.9-32.8 122 8.5 23 25.5 41 41.8 58.4 8.7 9.3 17.7 18.9 25.2 29 13.8 18.6 18.3 36.2 13 50.7-5.8 15.4-21.9 26.4-46.6 32a221 221 0 0 1-132.4-14c-14.3-6-28.5-13.1-42.2-20-28-13.9-57-28.3-88.7-34.7-41.7-8.3-85.4-7-127.7-5.6h-2.5c-84.3 2.6-173 2-256.3-30.6v2.3c83.5 32.6 172 33.1 256.4 30.5M1942 1679.2a57 57 0 0 0 42.1 18.9q25.2 0 55.1-19.6c30.6-19.9 59.3-53.9 48.2-89.5-6.5-20.7-24.4-25-38.3-25-21.4 0-45.3 9.8-58.6 19-28.3 19.6-54.2 57-48.6 96.2m42.1 21a59 59 0 0 1-44-19.8l-.2-.2v-.4c-6-40.2 20.5-78.5 49.4-98.6 13.5-9.3 38-19.4 59.8-19.4 21 0 35 9.2 40.4 26.6 11.5 36.7-17.8 71.6-49 92q-30.7 19.7-56.4 19.8"/><path d="M174.5 1576.2c-27.3-7-59.4-14-90.7-14q-31 0-54.2 9.4c-16.8 6.8-25.5 22.1-29.6 40.2v12.5c2.7-22.5 10.8-42.8 30.4-50.7q22.9-9.2 53.4-9.3c31 0 63 7.1 90.2 14 87.1 22.1 187.3 75.8 182.9 154-5 87.5-113 119.2-184.4 119.2q-9.7 0-18.7-.7c-28.8-2.5-82.1-12.7-116-53.9a148 148 0 0 1-27-53.8c-1.3-4.8-2-12.6-2.6-20.7-1-13.3-2-27.1-6.6-33.4v-.4L0 1672.5v18c4 6 5.1 19.8 6 32 .7 8.3 1.4 16.1 2.8 21.2a149 149 0 0 0 27.4 54.6c34.3 41.8 88.3 52.1 117.4 54.6q9 .8 18.9.8c72.2 0 181.5-32.3 186.5-121.3 4.5-79.5-96.6-133.8-184.5-156.2m2157.3 11.8c-23.4 0-42.3 4.5-59.5 14.1-26 14.6-44.6 39.8-62.6 64.3-7.1 9.6-14.4 19.6-22 28.6-22.2 26.2-50.9 50.8-90.3 77.3-9.2 6.2-19.9 12.6-31.2 19.5-59.4 36.2-133.4 81.2-121 152.3 8.5 36.5 42.6 59.3 72.6 79.4q3.8 2.4 7.3 4.9c37.8 25.5 75 50 115 68.3 30.4 15 64 22 96.6 28.7q13.6 2.8 27.2 5.9c21.9 5 41.9 13.9 61.2 22.5 16.2 7.2 32.8 14.7 50.4 19.7q3.3 1 6.2 1 7.2 0 12.2-6c24.7-29.4 3-154.9-5.3-202.1q-1.7-9.6-2.3-14.1c-11.8-80.4-16.4-163.6 67-218.2 16.3-10.7 34.2-19 51.5-27.1 16.6-7.8 33.8-15.7 49.5-25.9 17-10.9 25.3-23.3 23-35-2.2-12-15.9-21.7-36.5-25.9a3048 3048 0 0 0-142.3-24.7l-8.5-1.3c-19.2-3-39-6.1-58.2-6.1m49.9 588.6q-3.2 0-6.8-1a392 392 0 0 1-50.7-19.8 330 330 0 0 0-60.7-22.4l-27.2-5.9c-32.7-6.8-66.5-13.8-97.1-28.8-40.1-18.5-77.4-43-115.3-68.5l-7.3-5c-30.3-20.3-64.8-43.3-73.5-80.7-12.7-72.6 65.2-120 122-154.5a884 884 0 0 0 31.1-19.5c39.2-26.4 67.8-50.8 89.8-77 7.6-8.8 15-18.8 22-28.4 18-24.6 36.8-50.1 63.3-64.9a121 121 0 0 1 60.5-14.3c19.4 0 39.3 3.1 58.5 6.2l8.5 1.3c56 8.5 101.3 16.4 142.4 24.7 21.9 4.4 35.8 14.5 38.3 27.7 2.3 12.5-6.2 25.7-24 37.2-15.8 10.1-33.1 18.1-49.8 26-17.3 8-35.1 16.2-51.3 26.9-82.3 54-77.7 136.3-66 216l2.4 14.1c8.2 47.5 30 173.7 4.7 203.9a18 18 0 0 1-13.8 6.7"/><path d="M128.2 1600c-32.5 0-55.9 8.7-69.4 25.7-18.2 23-24.6 55.2-19.5 98.4 7.4 56.6 64 102.6 126 102.6h2c39.7-.7 96.7-13 126.6-45.6a76 76 0 0 0 20.3-58.8c-5.1-77.6-102.8-112.2-153.7-119.7a221 221 0 0 0-32.3-2.5m37.2 228.9c-63.2 0-120.7-46.9-128.2-104.5-5.2-43.8 1.3-76.5 20-100q21-26.5 71-26.5 15.4 0 32.7 2.5c71.7 10.6 151 53.2 155.5 121.7a79 79 0 0 1-21 60.5c-30.2 33-86 45.6-128 46.3zm92.5 150.8c39.4 2.2 81.2 6.1 120.4 26.1a585 585 0 0 1 46 27.2 458 458 0 0 0 59.7 33.6c76.5 33.9 190.7 18.2 256.8-16.4q40.6-21.4 45-52c4-28-14.7-61.4-57.2-102.4l-7.8-7.2c-18-16.8-45.3-42-45.3-64.4q-.2-8.8-1.1-16.8c-1.1-10.3-2.2-20 1.1-31.7q8.2-28.9 28.6-55.4c53.1-69.2 132.2-89.4 201.8-107.3h2.3c83.2 0 147 52.7 208.8 103.7q12 10.1 24.2 19.9c44 35.5 69.7 77 72.5 117.1q3.3 49.7-37.7 93.7a1070 1070 0 0 1-35.2 35.4c-30.9 30.2-60.1 58.7-81.5 97.8-7.4 15-14.3 30.7-21 45.8-17 39-34.7 79.3-62.8 112.2q-12.7 14.8-27.6 28h3.2q14-12.5 26-26.6c28.3-33.2 46-73.6 63.2-112.7 6.7-15.2 13.6-30.8 20.9-45.7 21.2-38.8 50.3-67.2 81.1-97.3q17.7-17 35.3-35.5 41.7-44.6 38.2-95.2c-2.8-40.7-28.8-82.8-73.2-118.7l-24.3-19.8c-62.6-51.8-127.3-105.3-212.7-104.2-70.1 18-149.7 38.3-203.2 108a168 168 0 0 0-29 56.2c-3.4 12-2.3 22-1.2 32.6q1 7.9 1.2 16.5c0 23.3 27.6 49 46 66l7.7 7.2c42 40.4 60.5 73.3 56.6 100.5q-4.2 29.5-43.9 50.3c-65.6 34.5-179 50-255 16.5a484 484 0 0 1-59.3-33.5 605 605 0 0 0-46.3-27.3c-39.5-20.2-81.5-24.1-121.2-26.4l-33-1.8c-77-4-150.3-8-225-27v2.1c74.7 19 148 23 224.9 27zm55.5 259.2a916 916 0 0 0-84.2 27.7h6.2A893 893 0 0 1 314 2241c72.6-19.7 127.2-20.6 182.3-3a928 928 0 0 1 75.7 28.7h5.5A951 951 0 0 0 497 2236c-55.6-17.8-110.5-17-183.6 3"/><path d="M159 1640.5c-27.6 0-51.1 9.4-64.4 25.8q-18.5 22.7-11 59.1c8.3 45 54.1 65.2 95.9 65.2 32.5 0 60.9-11.3 76-30.1a55 55 0 0 0 10-48.6c-10.2-46.4-62.5-71.4-106.4-71.4m20.5 152.3c-42.7 0-89.5-20.7-98-67-5-24.5-1-45.6 11.4-61 13.8-16.8 37.9-26.5 66.2-26.5 45.9 0 98 25.1 108.5 73.1a58 58 0 0 1-10.4 50.4c-15.5 19.4-44.6 31-77.7 31m361.3 387.4c20.8 32 58.6 63 101.2 86.5h4.4c-43.6-23.4-82.4-54.8-103.6-87.4-.4-29.6 31-39.4 56.4-47.3l7.3-2.3c18.9-6 40-10.9 62.3-16 60.8-14 129.7-29.9 167.4-76.7 46-57.2-12.4-109.1-59.4-151a463 463 0 0 1-29.5-27.5c-24.9-26.3-34.6-56.6-28.2-87.5 9-43.6 49.4-86.4 102.8-109.1a184 184 0 0 1 72-15.4c53.1 0 106.4 24.2 167.7 76 70.3 59.4 133.5 124.4 68.6 207-11.8 15-25.2 29-38.2 42.4-19 20-38.9 40.6-54 65.1-14 22.8-22.6 48.5-30.9 73.4a657 657 0 0 1-15 42c-20.4 49-51 87.9-88.1 114.3h3.7a264 264 0 0 0 86.3-113.5c5.8-13.8 10.5-28.2 15.2-42.1 8.2-24.8 16.7-50.3 30.6-73 15-24.3 34.7-44.8 53.8-64.7 13-13.5 26.4-27.5 38.2-42.6 66.2-84.1 2.3-149.8-68.8-210-61.8-52.1-115.5-76.4-169-76.4a186 186 0 0 0-73 15.5c-54 23-94.8 66.4-104 110.7-6.6 31.6 3.4 62.5 28.7 89.3 8.1 8.6 18.6 18 29.7 27.8 46.3 41.2 104 92.4 59.1 148-37.2 46.2-105.7 62-166.2 75.9-22.4 5.1-43.5 10-62.5 16l-7.2 2.4c-26.1 8-58.6 18.1-58 49.6v.3zm1804.3-526.6c-31.5 0-70.4 31-90.8 49.5-38.3 34.6-81.9 63.6-124 91.7l-19.3 12.8-11.3 7.5c-40.9 26.9-91.8 60.4-93.9 112.5 6.1 49.3 59.5 82.8 99 103.8 45.8 24.3 93 37 136.8 37q10.1 0 19.9-.9c58.2-5.1 84.4-35.2 84.9-97.3.2-29.5-2.9-59.3-5.8-88.2a840 840 0 0 1-5.9-84.4c.7-24.1 11.7-45.8 23-66l6-10c10-15.6 22.5-35.2 13.7-49.4a36 36 0 0 0-32.3-18.6m-103.5 417c-44.1 0-91.7-12.9-137.7-37.3-40-21.2-94-55.2-100.2-105.6 2.1-53.4 53.5-87.3 94.9-114.4l30.5-20.3c42-28 85.6-57 123.8-91.5 20.6-18.7 60-50 92.2-50q22 0 34.1 19.6c9.5 15.3-3.9 36.4-13.6 51.7q-3.5 5.5-6 9.9c-11.2 19.9-22 41.3-22.8 64.9.2 28.2 3 56.6 5.9 84.2 3 29 6 58.8 5.8 88.4-.5 62.6-28 94.3-86.8 99.5q-10 .9-20.1.9"/><path d="M892 1685.5c-43 0-85.4 17-107.8 43.5a72 72 0 0 0-16.6 60.5c6.9 36.9 38.9 61.3 67.1 82.9l4.2 3.2q10 7.6 20.3 16c27.6 21.8 58.8 46.5 89.9 59.7a63 63 0 0 0 24.6 4.8c29.9 0 63.6-19 86-48.6 18-24 25-50.6 18.7-72.9-17.7-63.3-92.1-119.5-153.7-145q-14.7-4-32.8-4m81.7 272.8q-13.6 0-25.4-5c-31.5-13.4-62.8-38.2-90.4-60q-10.5-8.5-20.3-16l-4.2-3.2c-28.5-21.8-60.9-46.6-68-84.2a74 74 0 0 1 17.2-62.3c22.8-26.9 65.7-44.2 109.3-44.2a124 124 0 0 1 33.5 4.2c64.2 26.5 137 82 155 146.4 6.5 23-.5 50.3-19 74.9-22.8 30-57.2 49.4-87.7 49.4m1805 73.1c2.4 1.6 4.3 12.4 5.4 18.8q.8 5.1 1.5 7.4a557 557 0 0 0 14.8 39.1l8 19.1c6.8 16 13.7 32.4 19.6 49q20.8 58.8 13.6 101.8h2.2q7-43.5-13.8-102.5c-5.9-16.7-12.9-33.2-19.6-49.1l-8-19.1a560 560 0 0 1-14.7-39c-.4-1.2-1-4-1.5-7-1.7-10-3.3-17.9-6.1-20.1-18.9-35.6-5.3-108.3 25.5-136.8 30.7-28.4 75.4-39.5 118.6-50.3 15-3.7 29.2-7.2 42.6-11.4 42.6-13.3 98.2-33.2 150.5-68.7 8.6-5.9 18.1-13.2 28.1-21 17.4-13.5 36-28 54.7-38.3v-2.5a443 443 0 0 0-56 39c-10 7.8-19.4 15.2-28 21-52 35.4-107.5 55.2-150 68.4-13.3 4.2-27.4 7.7-42.4 11.5-43.5 10.8-88.4 22-119.5 50.7-31.5 29-45.3 103.5-25.9 139.6z"/><path d="M848 1785.3c11.2 25.6 39.7 40.2 63 43.2q3.5.5 6.8.5c12.7 0 22.9-4.8 28-13 4.8-8 4.4-18.4-1.2-29.4-10.1-19.9-40.8-37.4-65.6-37.4-10.1 0-18.2 3-23.5 8.7q-8.7 9.4-7.6 27.4m69.8 45.8q-3.5 0-7.1-.4c-24-3.2-53.3-18.2-64.8-44.8v-.3q-1.4-19.1 8-29.2a33 33 0 0 1 25-9.3c25.6 0 57.2 18 67.6 38.6 6 11.6 6.3 22.8 1.1 31.3-5.5 9-16.3 14.1-29.8 14.1m1919.8 289.7c19 48.2 38.6 97.5 35 145.9h2.1c3.7-48.8-16-98.3-35.1-146.6-10.5-26.5-20.4-51.4-26.4-75.7-6.6-44.5-8.3-90.4 22.8-124.2 30.2-33 77.7-48 112.3-59q23-7.3 45.6-14.1a1420 1420 0 0 0 111.7-37.3c22.6-9 44.8-19.4 65.4-29.5q8.4-4.2 18.4-10.1l10.7-6.1v-2.5l-11.7 6.7c-6.6 3.8-12.8 7.4-18.3 10a941 941 0 0 1-65.3 29.5 1457 1457 0 0 1-111.5 37.2l-45.7 14.1c-34.8 11.1-82.6 26.3-113.2 59.6-31.7 34.5-30 81-23.4 126.1 6.2 24.6 16 49.6 26.6 76m-1253.1-275.7c21.1 43.4 75.7 62.8 120.5 62.8 35.9 0 66.5-11.8 84-32.4q22.1-26.2 15.6-67-12.2-32.7-79.6-32.8c-14 0-27 1-36.8 2-72 6.7-106 28.8-103.7 67.4m120.5 65c-45.5 0-101-19.9-122.5-64.2l-.1-.5c-2.5-40.1 32-63 105.5-69.9 10-.9 23-2 37-2q69.1 0 81.8 34.5 6.6 42-16.1 68.9c-18 21-49.1 33.2-85.6 33.2m527.8-112.9c-10.5 0-22.3 2.6-38.3 8.4-62 22.6-132.8 69.5-127.8 127.4 14.7 58.1 92.5 87.4 143 89.5l7.4.2c25 0 57.7-5.4 72.6-31 14.1-24.2 18.2-54.4 12-89.8-4.4-26-12.4-63.1-29.7-85.1a48 48 0 0 0-39.2-19.6m-15.7 227.6-7.5-.1c-51.2-2.2-130-32-145-91.3-5.1-59.3 66.4-107 129.1-129.8 16.3-6 28.3-8.6 39-8.6 16.8 0 30.2 6.7 41 20.5 17.6 22.3 25.6 59.8 30.2 86q9.2 54.2-12.3 91.3c-15.5 26.5-49 32-74.5 32"/><path d="M2863.6 2140.6c15.4 40.2 31.2 81.6 32.3 126h2.1c-1-44.7-17-86.3-32.4-126.8-12.3-32.1-25-65.4-30.3-100-11.3-76.3 27.5-129 118.8-161.4 78.8-28 163.4-47 245.9-65v-2.2c-82.7 18-167.5 37.1-246.6 65.1-91.2 32.3-131.6 87.4-120.2 163.8 5.2 34.9 18 68.3 30.4 100.5"/><path d="M2922.2 2250q1.7 8.5 2.7 16.7h2.2q-1.2-8.4-2.8-17.1c-5.9-30.6-18.5-62-30.7-92.3-19.5-48.5-39.7-98.6-34.2-148.7 6-55.2 48.9-94.2 131-119 79.4-24.2 149.7-32.7 209.6-25.7v-2.2c-60.2-7-130.7 1.6-210.2 25.8-83 25.2-126.4 64.7-132.5 120.9-5.6 50.6 14.7 101 34.3 149.7 12.2 30.2 24.8 61.5 30.6 91.8M2594 2061c5.5 20.2 11.3 41 15.9 61.9 7.3 33 10.2 66.6 13 99.1q1.5 17.9 3.4 35.9.3 4.3 1 8.8h2.2q-.7-4.6-1.1-9-1.9-18.1-3.3-35.8c-2.9-32.7-5.8-66.4-13.2-99.5-4.6-20.8-10.3-41.7-16-62a906 906 0 0 1-20.8-87c-4-47.9 27.9-82.2 81-87.5q6.9-.7 12.9-.7a66 66 0 0 1 46 15.7 101 101 0 0 1 7.3 25.8c2.4 12 4.6 23.3 9.4 29 5.4 59.8 26.8 112 47.1 155.1l3 6.2c20 42.3 42.6 90.2 33 137.7q-1.3 6-3.2 12h2.3q1.8-5.7 3-11.6c9.8-48.1-13-96.4-33.2-139l-3-6.2c-20.2-43-41.6-95-46.9-154.8v-.3l-.3-.3c-4.5-5-6.9-16.8-9.1-28.2-2-9.9-4-20-7.6-26.6l-.2-.3a68 68 0 0 0-47.6-16.4q-6.2 0-13 .7c-54.5 5.5-87 40.8-83 90 5 29.6 13 59 21 87.3"/><path d="M2912 2152.8q5 11.9 9.7 23.8a815 815 0 0 1 29.4 90h2.2q-12-46-29.6-90.8l-9.6-23.8c-13.8-33.5-28-68.2-31.9-103.5-10.4-95.8 76.1-132.6 128.6-146 71.2-18.1 133.5-16.3 189.2 5.8v-2.3c-56-22-118.4-23.7-189.7-5.5-53.2 13.5-140.8 50.8-130.2 148.3 3.8 35.5 18.1 70.3 32 104M2170 1926c3.4 10.9 15.6 15.7 26.1 15.7 9 0 20.2-3.6 24.2-13.6q4.4-11.3-1.3-19.7a26 26 0 0 0-21.7-10.4c-11.8 0-26 7.4-27.4 28m26.1 17.9c-11.4 0-24.6-5.4-28.3-17.4v-.4c1.4-22.3 16.7-30.2 29.5-30.2 9.8 0 18.8 4.3 23.5 11.3 2.9 4.3 5.5 11.5 1.5 21.7-3.7 9.2-13.7 15-26.2 15m978.4 312q10.6-21 22-41.3l3.6-6.8v-4.4l-5.6 10.2c-7.4 13.4-15 27.3-21.9 41.3l-1.3 2.7-4.5 9h2.4l4-8z"/><path d="M2924.2 2123a1920 1920 0 0 0 66 143.7h2.4a1914 1914 0 0 1-66.4-144.5l-2.2-6.6c-14-43-30-91.9-2.6-133 23-34.5 77.2-63.4 116.1-62 12.8.4 25.2 0 37.2-.4 32.1-1 62.4-2.1 95 13.8q16.6 8.3 30.3 20.4v-2.8q-13.5-11.6-29.5-19.5c-33-16.2-63.5-15.2-95.8-14-12 .4-24.4.8-37.1.3-39.5-1.5-94.6 28-118 63-28 42-11.8 91.3 2.4 134.9z"/><path d="M2966.2 2166c21.7 41.6 48.5 85.7 83.7 100.7h6.3l-1.9-.6c-36.4-13.2-64-58.5-86.2-101a408 408 0 0 1-38.8-112.3 94 94 0 0 1 26-71.8c25-26.4 67.8-42 114.3-42q11.3 0 22 1.2a140 140 0 0 1 101 58.8q4 6 7.4 12.6v-4.5q-2.6-4.7-5.7-9.3a142 142 0 0 0-102.4-59.8q-11-1.2-22.3-1.2c-47 0-90.4 16-116 42.7a96 96 0 0 0-26.4 73.6 410 410 0 0 0 39 113m233.8-26.8v-5.8c-19 49.6-57.2 117.8-104.9 133.2h6.2c44.2-18.3 79.7-79.8 98.7-127.4"/><path d="M3063.9 2206.5h2.6c61.9 0 101.8-71 106.8-122.2a97 97 0 0 0-23.7-76.8c-21.5-23.8-56-38-92.5-38-32.4 0-61 11.3-78.4 31.1-15.2 17.3-21.5 40.6-18.2 67.5 18 72.6 52.8 119.2 103.4 138.4m2.6 2.2h-2.9l-.3-.1c-51.4-19.4-86.6-66.6-104.9-140.2-3.4-27.6 3-51.5 18.7-69.2 17.8-20.3 47-31.9 80-31.9 37 0 72.2 14.5 94 38.7a99 99 0 0 1 24.3 78.5c-5.1 52-45.8 124.2-108.9 124.2m-2823-200.2c77.5 8.5 137.8 47.1 161.4 103.5a25 25 0 0 1 4 21.1c-6.5 22.4-43.8 39.7-64 49l-5.7 2.7a8072 8072 0 0 1-128.8 60.4l-41.8 19.4-4.3 2h5.2l41.8-19.4c39-17.9 81.2-37.6 128.9-60.4l5.7-2.7c20.4-9.4 58.3-27 65-50.4q3.3-11.6-4.1-22.7c-23.8-57-84.8-96-163-104.6q-36.9-4-72.9-7.3c-56-5.4-113.6-10.9-170.9-20.7v2.2c57.2 9.8 114.8 15.3 170.7 20.7a5262 5262 0 0 1 72.8 7.2m1340.8-28.5q-74.4.2-75.4 56.2c7.7 54.8 33.3 125.1 82 157.3a91 91 0 0 0 50.1 16.5c39 0 75-30.6 93.9-80 11-28.7 21.4-62.1 5.8-94-23.3-26.5-54.3-37.6-81.6-44.9-15.4-4.1-45.5-11-74.8-11m56.7 232.1a93 93 0 0 1-51.3-16.8c-49.3-32.6-75.1-103.5-82.9-159 .6-38.2 27.3-58.4 77.5-58.4 29.5 0 59.9 7 75.3 11.1 27.7 7.5 59.1 18.7 82.8 45.6l.2.2c16 32.8 5.5 66.8-5.7 96-19.2 50.2-56 81.3-95.9 81.3"/><path d="M3057.4 2008.6c-21.3 0-39.4 7.5-49.9 20.7-9 11.4-11.7 26.7-7.6 44.2 4.7 18 20 61 59.5 71.4q5.3 1.4 10.4 1.4c31.8 0 54.2-38.2 58.1-65.9 2.7-18.5-1.7-35-12.7-47.7a76 76 0 0 0-57.8-24m12.4 139.9q-5.4 0-11-1.5c-28.5-7.5-50.7-34.1-61-73-4.2-18.2-1.4-34.1 8-46 10.9-13.7 29.7-21.5 51.6-21.5 23.8 0 46 9.2 59.5 24.8a60 60 0 0 1 13.2 49.4c-4 28.4-27.3 67.8-60.3 67.8m-2871.3-107c30.6 5.9 101.2 25.1 96.7 77.2-2.5 29.2-34.1 51-57.3 66.9l-7.8 5.4c-27 19.1-56.6 37-90.4 54.6q-20 10.5-42.5 21h5q20.3-9.6 38.5-19.1a786 786 0 0 0 98.5-60.1c23.4-16.2 55.5-38.3 58.1-68.5 4.7-53.8-67.2-73.5-98.4-79.5-47.7-9.2-97.2-14-145.1-18.6q-26.7-2.6-53.8-5.5v2.1q27.1 3 53.6 5.5c47.8 4.7 97.3 9.5 145 18.6m1426.1-11.1c-18.4 0-34 6-43.9 17a49 49 0 0 0-11.2 38.7c6.8 31.6 28.4 70 67.3 74q2.2.3 4.4.3c16.9 0 29.3-9.8 36.8-18a76 76 0 0 0 19.6-55.5c-3.5-36.7-40.2-56.5-73-56.5m16.6 132.1-4.7-.2c-40-4.1-62.2-43.4-69-75.9a51 51 0 0 1 11.6-40.5 60 60 0 0 1 45.5-17.6c33.7 0 71.5 20.5 75.1 58.5 1.9 19-6 41.4-20.2 57a52 52 0 0 1-38.3 18.7"/><path d="M1334 2266.7c9-34.4 9.2-72 9.4-108.7.1-32.6.3-63.4 6.1-91.7q3.8-18.6 16.8-23c19.2-6.7 48.9 10 64.1 22.8 23.8 20 40.6 48 57 75.2q5.3 9 11 18c28 45 69.6 93.5 124 107.4h62.4l4.5-1.2c51.6-14.3 71.8-65.4 91.4-114.8 11.7-29.7 22.7-57.6 39.9-77.2q20.8-23.6 57.3-21.8c52.2 2.6 118 45.7 144.6 82.7 11.7 16.5 15.3 32.3 11 48.5-7.4 28.3-40.2 57.1-95 83.8h23.5q70.6-38.6 82-81 7.5-29-12.8-57.5c-28.5-39.9-96.7-84.5-152.8-87.2q-41.6-2-65.9 25.4c-18.4 21-30.3 51.1-41.8 80.3-18.6 47-37.8 95.5-84.3 108.4-81.6 22.7-142.3-42.7-179-101.5l-10.9-17.9c-16.7-27.9-34-56.7-59.2-77.9-14.7-12.3-49.2-33.5-74.5-24.7q-18.7 6.7-23.7 31c-6.1 29.3-6.3 62.1-6.5 93.8-.1 37-.3 74.9-9.7 108.8zM187 2100.8a41 41 0 0 1 11.4 32.4c-3.4 41.4-63.7 77.1-99.7 98.4l-8.4 5q-27.4 16.5-57.2 30h5.2a592 592 0 0 0 53.1-28.1l8.4-5c36.4-21.6 97.3-57.6 100.7-100.1q1.5-19.2-12-34c-34.1-37.5-131.7-44.2-188.5-45.6v2.3c99.6 2.8 162.4 17.8 187 44.7m2476.1 90.1.8 5.7c3 24.4 6.4 51.1 21.6 70h2.8c-15.8-18.5-19.2-45.6-22.3-70.3l-.7-5.6-.2-7.1c-.8-23.4-2.8-85.6 12.7-101.7a11 11 0 0 1 8.2-3.8q6.2 0 14.2 6.6c36 29.3 63.2 71.3 72.9 112.4 5.5 23.4 0 50.8-13.7 68.2l-1.2 1.4h2.9c14-18 19.7-46.1 14-70.1-9.8-41.5-37.3-84-73.5-113.5q-15.7-12.7-25.3-2.7c-16.2 16.8-14.2 77.4-13.4 103.2q.3 4.5.2 7.3m-1906.6 75.8h12.9c-40.4-5.2-83.4-26-101.9-65 .4-32 28.8-43.6 56.3-54.8l4.4-1.8a1270 1270 0 0 1 108.6-38.2 370 370 0 0 0 16.5-5.7c15.8-5.8 33.7-12.3 49.7-12.3q16.8 0 27.5 9.7c10 18 12 35.3 6.4 57.8-12 49.2-55.9 92.1-109.3 106.7q-8.4 2.4-17.5 3.6h12.2l5.9-1.5c54-14.8 98.6-58.3 110.8-108.3 5.7-23.2 3.7-41-6.7-59.4l-.2-.3a41 41 0 0 0-29-10.4c-16.5 0-34.6 6.6-50.5 12.4q-8.9 3.3-16.4 5.6c-41.4 12.7-77 25.2-108.9 38.3l-4.3 1.8c-27 11-57.4 23.4-57.6 57v.4c16.9 36 54 56.7 91 64.4"/><path d="M108.3 2125.6c-19.7-24.3-71.5-31.3-108.3-34v2.1c36.5 2.8 87.5 9.7 106.7 33.2a34 34 0 0 1 7.1 27.2c-4.7 31.7-48.6 61-63 70.6a383 383 0 0 1-50.8 28v2.4l5.8-2.6a375 375 0 0 0 46.2-26c14.6-9.8 59-39.4 64-72.1q2.4-16.5-7.7-28.8m965.5 141.1q16.5-24 31.2-53.5c18.7-37.5 56.7-102.3 101.6-114.4q23.7-6.3 45.5 8.1c16.6 11 28.2 30.5 33.4 56.4 6.5 32.5 2.2 72.9-10 103.4h2.4a198 198 0 0 0 9.7-103.8c-5.3-26.5-17.2-46.4-34.3-57.8q-22.7-15-47.2-8.4c-45.7 12.4-84.2 77.7-103 115.5a432 432 0 0 1-32 54.5zm790.6-161.9a73 73 0 0 1 28.8-5.7 101 101 0 0 1 80.6 42.7 50 50 0 0 1 2.2 54c-21.3 39.5-87.6 69-132.5 69-25.4 0-41.8-9-45.9-25.4-4.2-49.3 20.1-114.8 66.8-134.6m-28.3 161.9h15.3c45-3.2 106-32 126.5-69.9a52 52 0 0 0-2.3-56.2 102 102 0 0 0-82.4-43.6q-16 0-29.7 5.8c-47.5 20.2-72.3 86.7-68 137 4 15.8 18.3 25.2 40.6 26.9"/><path d="M0 2164.3v4q3.1 5.8 2.6 11.2-.6 5.9-2.6 10.3v4.6a34 34 0 0 0 4.7-14.7 23 23 0 0 0-4.7-15.4m1376.7 102.4q2.3-13.4 4.2-27.3 2-13.6 4.3-27.6c4.1-27.2 14.4-45.8 28-51q16.4-6 37.7 12a246 246 0 0 1 37.5 43.6c8 11 16.4 22.3 25.9 32.5q9 9.6 19.2 17.8h3.4a194 194 0 0 1-21-19.3c-9.4-10-17.7-21.3-25.8-32.3a245 245 0 0 0-37.8-43.8q-22.3-19-39.8-12.5c-14.4 5.5-25.2 24.7-29.4 52.7q-2.4 14-4.3 27.6l-4.3 27.6zm-243.9 0q8.2-39.7 28.5-65.8c10.6-13.6 27.6-28.2 43.7-28.2q17.8 0 26.8 23.7c6.7 17.6 0 44.3-17.5 69.7q0 .3-.4.6h2.6c17.8-26.2 24.3-52.7 17.3-71.1-7.9-20.7-20-25-28.8-25-16.8 0-34.5 15-45.4 29a158 158 0 0 0-29 67z"/></g></svg>